<?xml version="1.0" encoding="utf-8"?>
<!-- Generator: Adobe Illustrator 19.1.0, SVG Export Plug-In . SVG Version: 6.00 Build 0)  -->
<svg version="1.1" id="Layer_1" xmlns="http://www.w3.org/2000/svg" xmlns:xlink="http://www.w3.org/1999/xlink" x="0px" y="0px"
	 viewBox="0 0 266.9 266.9" enable-background="new 0 0 266.9 266.9" xml:space="preserve">
<g>
	<path id="Blue_1_" fill="#3B5998" d="M218.7,232.7c6.1,0,11-4.9,11-11V44.3c0-6.1-4.9-11-11-11H41.3c-6.1,0-11,4.9-11,11v177.3
		c0,6.1,4.9,11,11,11H218.7z"/>
	<path id="f" fill="#FFFFFF" d="M167.9,232.7v-77.2h25.9l3.9-30.1h-29.8v-19.2c0-8.7,2.4-14.6,14.9-14.6l15.9,0V64.6
		c-2.8-0.4-12.2-1.2-23.2-1.2c-23,0-38.7,14-38.7,39.8v22.2h-26v30.1h26v77.2H167.9z"/>
</g>
</svg>
