<?xml version="1.0" encoding="utf-8"?>
<!-- Generator: Adobe Illustrator 19.1.0, SVG Export Plug-In . SVG Version: 6.00 Build 0)  -->
<svg version="1.1" id="Layer_1" xmlns="http://www.w3.org/2000/svg" xmlns:xlink="http://www.w3.org/1999/xlink" x="0px" y="0px"
	 viewBox="0 0 169.3 126.2" enable-background="new 0 0 169.3 126.2" xml:space="preserve">
<rect y="0" fill="none" width="169.3" height="126.2"/>
<g>
	<g>
		<path fill="#1B3281" d="M24.1,93.1h-1.7v10.7h6.3V102c0,0-3.8,0-4.3,0c0-0.5,0-8.9,0-8.9H24.1z"/>
		<path fill="#1B3281" d="M29.4,98.5c0,3.4,2,5.5,5.2,5.5c3.1,0,5.2-2.2,5.2-5.5c0-3.3-2.1-5.5-5.2-5.5C31.4,93,29.4,95.2,29.4,98.5
			z M36.6,95.6c0.7,0.7,1.1,1.7,1.1,2.9c0,1.8-0.8,3.7-3.1,3.7c-2.3,0-3.1-1.9-3.1-3.7c0-1.2,0.4-2.3,1.1-2.9c0.5-0.5,1.2-0.8,2-0.8
			C35.3,94.8,36,95.1,36.6,95.6z"/>
		<path fill="#1B3281" d="M48.1,93.1H40V95c0,0,2.7,0,3.2,0c0,0.5,0,8.9,0,8.9h2c0,0,0-8.4,0-8.9c0.5,0,3,0,3,0v-1.8H48.1z"/>
		<path fill="#1B3281" d="M57.3,93.1h-7.9V95c0,0,2.5,0,3,0c0,0.5,0,8.9,0,8.9h2c0,0,0-8.4,0-8.9c0.5,0,3.2,0,3.2,0v-1.8H57.3z"/>
		<path fill="#1B3281" d="M64.8,93.1h-6v10.7H65V102c0,0-3.8,0-4.2,0c0-0.4,0-2.4,0-2.8c0.5,0,3.9,0,3.9,0v-1.8c0,0-3.4,0-3.9,0
			c0-0.4,0-2,0-2.4c0.5,0,4.2,0,4.2,0v-1.8H64.8z"/>
		<path fill="#1B3281" d="M67.2,93.1H67v10.7h2c0,0,0-4,0-4.5c0.3,0,0.6,0,0.6,0c0.8,0,1.1,0,1.5,0.8l1.6,3.7H75l-2.1-4.5
			c-0.2-0.4-0.4-0.7-0.6-0.8c1.1-0.4,1.7-1.3,1.7-2.4c0-2.7-2.1-3-4.2-3H67.2z M70.1,95c0.7,0,1.8,0.2,1.8,1.2
			c0,0.8-0.7,1.3-1.9,1.3c0,0-0.6,0-1,0c0-0.4,0-2.1,0-2.5C69.3,95,70.1,95,70.1,95z"/>
		<path fill="#1B3281" d="M84.2,93.1h-1.9c0,0-2.4,3.7-2.8,4.3c-0.4-0.6-2.9-4.3-2.9-4.3h-2.4c0,0,4.1,6.1,4.2,6.3
			c0,0.2,0,4.5,0,4.5h2c0,0,0-4.3,0-4.5c0.1-0.1,4.2-6.3,4.2-6.3H84.2z"/>
		<path fill="#1B3281" d="M95.5,93.1h-5.7v10.7h2c0,0,0-4.1,0-4.6c0.5,0,3.8,0,3.8,0v-1.8c0,0-3.3,0-3.8,0c0-0.4,0-2,0-2.4
			c0.5,0,4,0,4,0v-1.8H95.5z"/>
		<path fill="#1B3281" d="M105.9,93.1h-1.7v6.1c0,2.1-0.7,3-2.2,3c-1.5,0-2.2-0.9-2.2-3v-6.1h-2v6.2c0,3,1.5,4.7,4.2,4.7
			c2.7,0,4.2-1.7,4.2-4.7v-6.2H105.9z"/>
		<path fill="#1B3281" d="M116.7,93.1H115c0,0,0,5.8,0,7.4c-0.8-1.4-4.1-7.4-4.1-7.4h-2.4v10.7h2c0,0,0-6,0-7.6
			c0.8,1.4,4.2,7.6,4.2,7.6h2.3V93.1H116.7z"/>
		<path fill="#1B3281" d="M119.4,93.1h-0.3v10.7h3.3c3.6,0,5.7-2,5.7-5.5c0-3.1-2.3-5.3-5.7-5.3H119.4z M122.6,95
			c2.1,0,3.4,1.4,3.4,3.5c0,2.4-1.2,3.6-3.6,3.6c0,0-0.9,0-1.3,0c0-0.5,0-6.5,0-7C121.6,95,122.6,95,122.6,95z"/>
		<path fill="#1B3281" d="M135.8,93.1h-6v10.7h6.3V102c0,0-3.8,0-4.2,0c0-0.4,0-2.4,0-2.8c0.5,0,3.9,0,3.9,0v-1.8c0,0-3.4,0-3.9,0
			c0-0.4,0-2,0-2.4c0.5,0,4.2,0,4.2,0v-1.8H135.8z"/>
		<path fill="#1B3281" d="M138.3,93.1H138v10.7h3.3c3.6,0,5.7-2,5.7-5.5c0-3.1-2.3-5.3-5.7-5.3H138.3z M141.4,95
			c2.1,0,3.4,1.4,3.4,3.5c0,2.4-1.2,3.6-3.6,3.6c0,0-0.9,0-1.2,0c0-0.5,0-6.5,0-7C140.4,95,141.4,95,141.4,95z"/>
	</g>
	<g>
		<path fill="#1B3281" d="M54.3,52.4c1.1-0.9,2.4-1.2,3.4-0.8c1.6,0.7,1.7,2.9,0.6,5.3c-0.5,1-1.2,1.9-2,2.4c-1,0.8-2.1,1.1-3,0.7
			c-2.1-0.8-2.5-4.9-0.9-9.1c1.6-4.2,4.6-7,6.7-6.2c1.9,0.7,2.5,4.2,1.3,8c0.2-1.4-0.3-2.7-1.4-3.2c-1.5-0.7-3.5,0.4-4.6,2.5
			C54.4,52.2,54.4,52.3,54.3,52.4z"/>
		<path fill="#1B3281" d="M67.1,54.7c0.5-2.9-0.2-5.1-1.8-5.1c-1.8,0-4.1,2.8-5,6.2c-0.9,3.5-0.2,6.3,1.6,6.3c1.2,0,2.5-1.2,3.6-2.9
			c0.2-0.3,0.3-0.5,0.4-0.8c0.7-1.9,0.4-3.7-0.9-4.1c-0.8-0.2-1.7-0.1-2.5,0.7c0-0.1,0.1-0.2,0.1-0.3c0.7-1.6,2.2-2.6,3.4-2.2
			C66.7,52.7,67.1,53.6,67.1,54.7z"/>
		<path fill="#1B3281" d="M48.7,28.2c-2-4.5-4-7.2-6-5.9c-2.5,1.7-2,6.2,1.1,13.9C45.3,33.4,46.9,30.5,48.7,28.2z"/>
		<path fill="#1B3281" d="M66.6,59.3c-0.1,0.2-0.2,0.5-0.3,0.7c-1.2,2.2-2.9,3.7-4.6,3.7c-1.8,0-3.1-1.8-3.5-4.3
			c-0.5,0.6-1.1,1.2-1.7,1.6c-1.3,0.9-2.7,1.2-3.8,0.7c-2.8-1.1-3.5-5.9-1.7-10.8c0.8-2.2,2.1-4.1,3.5-5.4c-0.3-1.3-0.7-2.8-1.1-4.3
			c-0.2,0.4-0.4,0.7-0.6,1.1c-1,1.9-2.2,3.1-3.5,3.9c0.9-1.5,1.7-3,2.4-4.5c3.8-7.6,6.9-14.2,4.1-15.9c-3.5-2-8.2,5.1-11.7,12.7
			C40.5,46.3,38.5,54,38.5,54s-3.5-6.6-10.4-6.6c-3.5,0-5.7,1.7-5.7,3.2c0,1.1,0.9,1.8,2,2.1c2.2,0.6,3.4,1.4,5.1,3.8
			c1.7,2.3,3,8,3.3,9.4c1.8,7.6,8.6,13.2,16.7,13.2c9.5,0,17.2-7.7,17.2-17.2C66.8,61,66.7,60.1,66.6,59.3z M52.9,72.5
			c-6.1,0-11.5-5.6-14-13.8c3.5,6.3,9.4,10.5,16,10.5c2.7,0,5.3-0.7,7.6-1.9C59.9,70.5,56.5,72.5,52.9,72.5z"/>
	</g>
	<g>
		<g>
			<rect x="78.2" y="22.4" fill="#1B3281" width="0.9" height="56.7"/>
		</g>
	</g>
	<g>
		<g>
			<path fill="#1B3281" d="M63.4,23.9c0.7,0,1.3,0.2,1.8,0.5c0.6,0.3,1,0.8,1.3,1.3c0.3,0.6,0.5,1.2,0.5,1.8c0,0.7-0.2,1.3-0.5,1.8
				c-0.3,0.6-0.8,1-1.3,1.3c-0.6,0.3-1.2,0.5-1.8,0.5c-0.7,0-1.3-0.2-1.8-0.5c-0.6-0.3-1-0.8-1.3-1.3c-0.3-0.6-0.5-1.2-0.5-1.8
				c0-0.7,0.2-1.3,0.5-1.8c0.3-0.6,0.8-1,1.3-1.3C62.1,24,62.7,23.9,63.4,23.9z M63.4,24.5c-0.8,0-1.6,0.3-2.2,0.9
				c-0.6,0.6-0.9,1.3-0.9,2.2c0,0.8,0.3,1.6,0.9,2.2c0.6,0.6,1.3,0.9,2.2,0.9c0.8,0,1.6-0.3,2.2-0.9c0.6-0.6,0.9-1.3,0.9-2.2
				c0-0.8-0.3-1.6-0.9-2.2C65,24.8,64.2,24.5,63.4,24.5z M62.6,29.5h-0.6v-3.9h1.4c0.5,0,0.8,0,1,0.1c0.2,0.1,0.4,0.2,0.5,0.4
				c0.1,0.2,0.2,0.4,0.2,0.6c0,0.3-0.1,0.6-0.3,0.8c-0.2,0.2-0.5,0.3-0.8,0.4c0.1,0.1,0.3,0.2,0.4,0.3c0.1,0.1,0.3,0.4,0.5,0.7
				l0.5,0.8h-0.8l-0.3-0.6c-0.3-0.4-0.4-0.7-0.6-0.9c-0.1-0.1-0.3-0.2-0.6-0.2h-0.4V29.5z M62.6,26.1v1.2h0.8c0.3,0,0.6,0,0.7-0.1
				c0.2-0.1,0.2-0.2,0.2-0.5c0-0.2-0.1-0.4-0.2-0.5c-0.1-0.1-0.4-0.1-0.8-0.1H62.6z"/>
		</g>
		<g>
			<path fill="#1B3281" d="M54.3,52.4c1.1-0.9,2.4-1.2,3.4-0.8c1.6,0.7,1.7,2.9,0.6,5.3c-0.5,1-1.2,1.9-2,2.4c-1,0.8-2.1,1.1-3,0.7
				c-2.1-0.8-2.5-4.9-0.9-9.1c1.6-4.2,4.6-7,6.7-6.2c1.9,0.7,2.5,4.2,1.3,8c0.2-1.4-0.3-2.7-1.4-3.2c-1.5-0.7-3.5,0.4-4.6,2.5
				C54.4,52.2,54.4,52.3,54.3,52.4z"/>
			<path fill="#1B3281" d="M67.1,54.7c0.5-2.9-0.2-5.1-1.8-5.1c-1.8,0-4.1,2.8-5,6.2c-0.9,3.5-0.2,6.3,1.6,6.3
				c1.2,0,2.5-1.2,3.6-2.9c0.2-0.3,0.3-0.5,0.4-0.8c0.7-1.9,0.4-3.7-0.9-4.1c-0.8-0.2-1.7-0.1-2.5,0.7c0-0.1,0.1-0.2,0.1-0.3
				c0.7-1.6,2.2-2.6,3.4-2.2C66.7,52.7,67.1,53.6,67.1,54.7z"/>
			<path fill="#1B3281" d="M48.7,28.2c-2-4.5-4-7.2-6-5.9c-2.5,1.7-2,6.2,1.1,13.9C45.3,33.4,46.9,30.5,48.7,28.2z"/>
			<path fill="#1B3281" d="M66.6,59.3c-0.1,0.2-0.2,0.5-0.3,0.7c-1.2,2.2-2.9,3.7-4.6,3.7c-1.8,0-3.1-1.8-3.5-4.3
				c-0.5,0.6-1.1,1.2-1.7,1.6c-1.3,0.9-2.7,1.2-3.8,0.7c-2.8-1.1-3.5-5.9-1.7-10.8c0.8-2.2,2.1-4.1,3.5-5.4
				c-0.3-1.3-0.7-2.8-1.1-4.3c-0.2,0.4-0.4,0.7-0.6,1.1c-1,1.9-2.2,3.1-3.5,3.9c0.9-1.5,1.7-3,2.4-4.5c3.8-7.6,6.9-14.2,4.1-15.9
				c-3.5-2-8.2,5.1-11.7,12.7C40.5,46.3,38.5,54,38.5,54s-3.5-6.6-10.4-6.6c-3.5,0-5.7,1.7-5.7,3.2c0,1.1,0.9,1.8,2,2.1
				c2.2,0.6,3.4,1.4,5.1,3.8c1.7,2.3,3,8,3.3,9.4c1.8,7.6,8.6,13.2,16.7,13.2c9.5,0,17.2-7.7,17.2-17.2C66.8,61,66.7,60.1,66.6,59.3
				z M52.9,72.5c-6.1,0-11.5-5.6-14-13.8c3.5,6.3,9.4,10.5,16,10.5c2.7,0,5.3-0.7,7.6-1.9C59.9,70.5,56.5,72.5,52.9,72.5z"/>
		</g>
	</g>
</g>
<g>
	<g>
		<circle fill="#EC008C" cx="98.5" cy="70.8" r="0.1"/>
		<circle fill="#EC008C" cx="99.9" cy="69.4" r="0.5"/>
		<path fill="#EC008C" d="M99.9,71c-0.1,0-0.2-0.1-0.2-0.2c0-0.1,0.1-0.2,0.2-0.2c0.1,0,0.2,0.1,0.2,0.2C100.1,70.9,100,71,99.9,71z
			"/>
		<circle fill="#EC008C" cx="99.9" cy="72.1" r="0.1"/>
		<circle fill="#EC008C" cx="101.2" cy="70.7" r="0.5"/>
		<circle fill="#EC008C" cx="101.2" cy="72.1" r="0.2"/>
		<circle fill="#EC008C" cx="101.2" cy="73.4" r="0.1"/>
		<circle fill="#EC008C" cx="102.5" cy="72.1" r="0.4"/>
		<circle fill="#EC008C" cx="102.5" cy="73.4" r="0.2"/>
		<circle fill="#EC008C" cx="102.5" cy="74.8" r="0.1"/>
		<circle fill="#EC008C" cx="103.9" cy="73.4" r="0.3"/>
		<circle fill="#EC008C" cx="103.9" cy="74.8" r="0.1"/>
		<circle fill="#EC008C" cx="111.9" cy="76.1" r="0.5"/>
		<circle fill="#EC008C" cx="110.6" cy="76.1" r="0.4"/>
		<circle fill="#EC008C" cx="109.3" cy="76.1" r="0.3"/>
		<circle fill="#EC008C" cx="107.9" cy="76.1" r="0.2"/>
		<circle fill="#EC008C" cx="109.3" cy="77.5" r="0.1"/>
		<circle fill="#EC008C" cx="111.9" cy="78.8" r="0.1"/>
		<circle fill="#EC008C" cx="107.9" cy="77.5" r="0.1"/>
		<circle fill="#EC008C" cx="105.2" cy="76.1" r="0.1"/>
		<circle fill="#EC008C" cx="110.6" cy="77.5" r="0.1"/>
		<circle fill="#EC008C" cx="111.9" cy="77.5" r="0.2"/>
		<circle fill="#EC008C" cx="113.3" cy="77.5" r="0.3"/>
		<path fill="#EC008C" d="M113.2,78.8C113.2,78.8,113.2,78.9,113.2,78.8c0.1,0.1,0.2,0.1,0.2,0C113.4,78.7,113.3,78.7,113.2,78.8
			C113.2,78.7,113.2,78.7,113.2,78.8z"/>
		<circle fill="#EC008C" cx="106.6" cy="76.1" r="0.1"/>
		<circle fill="#EC008C" cx="107.9" cy="74.8" r="0.5"/>
		<circle fill="#EC008C" cx="106.6" cy="74.8" r="0.4"/>
		<circle fill="#EC008C" cx="105.2" cy="74.8" r="0.2"/>
		<path fill="#EC008C" d="M104.7,73.4c0,0.3,0.2,0.5,0.5,0.5c0.3,0,0.5-0.2,0.5-0.5c0-0.3-0.2-0.5-0.5-0.5
			C105,72.9,104.7,73.2,104.7,73.4z"/>
		<circle fill="#EC008C" cx="98.5" cy="69.4" r="0.2"/>
		<circle fill="#EC008C" cx="97.2" cy="69.4" r="0.1"/>
		<circle fill="#EC008C" cx="98.5" cy="68.1" r="0.5"/>
		<circle fill="#EC008C" cx="97.2" cy="68.1" r="0.2"/>
		<circle fill="#EC008C" cx="95.8" cy="68.1" r="0.1"/>
		<circle fill="#EC008C" cx="97.2" cy="66.7" r="0.4"/>
		<circle fill="#EC008C" cx="95.8" cy="66.7" r="0.2"/>
		<circle fill="#EC008C" cx="94.5" cy="66.7" r="0.1"/>
		<circle fill="#EC008C" cx="95.8" cy="65.4" r="0.3"/>
		<path fill="#EC008C" d="M94.4,65.4c0,0.1,0.1,0.1,0.1,0.1c0.1,0,0.1-0.1,0.1-0.1c0-0.1-0.1-0.1-0.1-0.1
			C94.4,65.3,94.4,65.3,94.4,65.4z"/>
		<circle fill="#EC008C" cx="93.2" cy="57.3" r="0.5"/>
		<circle fill="#EC008C" cx="93.2" cy="58.7" r="0.4"/>
		<circle fill="#EC008C" cx="93.2" cy="60" r="0.3"/>
		<circle fill="#EC008C" cx="93.2" cy="61.4" r="0.2"/>
		<circle fill="#EC008C" cx="91.8" cy="60" r="0.1"/>
		<circle fill="#EC008C" cx="90.5" cy="57.3" r="0.1"/>
		<circle fill="#EC008C" cx="91.8" cy="61.4" r="0.1"/>
		<path fill="#EC008C" d="M93.2,64.1C93.1,64.1,93.1,64.1,93.2,64.1c-0.1-0.1,0-0.1,0-0.1C93.2,64,93.2,64,93.2,64.1
			C93.2,64.1,93.2,64.1,93.2,64.1z"/>
		<circle fill="#EC008C" cx="91.8" cy="58.7" r="0.1"/>
		<circle fill="#EC008C" cx="91.8" cy="57.3" r="0.2"/>
		<circle fill="#EC008C" cx="91.8" cy="56" r="0.3"/>
		<circle fill="#EC008C" cx="90.5" cy="56" r="0.1"/>
		<circle fill="#EC008C" cx="93.2" cy="62.7" r="0.1"/>
		<circle fill="#EC008C" cx="94.5" cy="61.4" r="0.5"/>
		<circle fill="#EC008C" cx="94.5" cy="62.7" r="0.4"/>
		<path fill="#EC008C" d="M94.5,64.2c-0.1,0-0.2-0.1-0.2-0.2c0-0.1,0.1-0.2,0.2-0.2c0.1,0,0.2,0.1,0.2,0.2
			C94.7,64.1,94.6,64.2,94.5,64.2z"/>
		<circle fill="#EC008C" cx="95.8" cy="64" r="0.5"/>
		<circle fill="#EC008C" cx="98.5" cy="30.5" r="0.1"/>
		<circle fill="#EC008C" cx="99.9" cy="31.9" r="0.5"/>
		<circle fill="#EC008C" cx="99.9" cy="30.5" r="0.2"/>
		<circle fill="#EC008C" cx="99.9" cy="29.2" r="0.1"/>
		<circle fill="#EC008C" cx="101.2" cy="30.5" r="0.5"/>
		<circle fill="#EC008C" cx="101.2" cy="29.2" r="0.2"/>
		<circle fill="#EC008C" cx="101.2" cy="27.8" r="0.1"/>
		<circle fill="#EC008C" cx="102.5" cy="29.2" r="0.4"/>
		<circle fill="#EC008C" cx="102.5" cy="27.8" r="0.2"/>
		<circle fill="#EC008C" cx="102.5" cy="26.5" r="0.1"/>
		<circle fill="#EC008C" cx="103.9" cy="27.8" r="0.3"/>
		<circle fill="#EC008C" cx="103.9" cy="26.5" r="0.1"/>
		<circle fill="#EC008C" cx="111.9" cy="25.2" r="0.5"/>
		<circle fill="#EC008C" cx="110.6" cy="25.2" r="0.4"/>
		<circle fill="#EC008C" cx="109.3" cy="25.2" r="0.3"/>
		<circle fill="#EC008C" cx="107.9" cy="25.2" r="0.2"/>
		<circle fill="#EC008C" cx="109.3" cy="23.8" r="0.1"/>
		<circle fill="#EC008C" cx="111.9" cy="22.5" r="0.1"/>
		<circle fill="#EC008C" cx="107.9" cy="23.8" r="0.1"/>
		<circle fill="#EC008C" cx="105.2" cy="25.2" r="0.1"/>
		<circle fill="#EC008C" cx="110.6" cy="23.8" r="0.1"/>
		<circle fill="#EC008C" cx="111.9" cy="23.8" r="0.2"/>
		<circle fill="#EC008C" cx="113.3" cy="23.8" r="0.3"/>
		<path fill="#EC008C" d="M114.2,23.8L114.2,23.8c0,0.2,0.2,0.4,0.4,0.4c0.2,0,0.4-0.2,0.4-0.4c0-0.2-0.2-0.4-0.4-0.4
			C114.4,23.4,114.2,23.6,114.2,23.8z"/>
		<path fill="#EC008C" d="M115.7,23.5c-0.1,0.1-0.1,0.2-0.1,0.3l0,0c0,0.1,0,0.2,0.1,0.3c0.1,0.1,0.2,0.1,0.3,0.1
			c0.2,0,0.4-0.2,0.4-0.4c0-0.2-0.2-0.4-0.4-0.4C115.8,23.4,115.7,23.5,115.7,23.5z"/>
		<path fill="#EC008C" d="M117,23.5c-0.1,0.1-0.1,0.2-0.1,0.3c0,0.1,0,0.2,0.1,0.3c0.1,0.1,0.2,0.1,0.3,0.1c0.3,0,0.5-0.2,0.5-0.5
			c0-0.3-0.2-0.5-0.5-0.5C117.2,23.4,117.1,23.4,117,23.5z"/>
		<circle fill="#EC008C" cx="113.3" cy="22.5" r="0.1"/>
		<path fill="#EC008C" d="M114.5,22.5L114.5,22.5c0,0.1,0.1,0.2,0.2,0.2c0.1,0,0.2-0.1,0.2-0.2s-0.1-0.2-0.2-0.2
			C114.5,22.3,114.5,22.4,114.5,22.5z"/>
		<path fill="#EC008C" d="M116,22.3c-0.1,0-0.2,0.1-0.2,0.2l0,0c0,0.1,0.1,0.2,0.2,0.2c0.1,0,0.2-0.1,0.2-0.2c0,0,0-0.1-0.1-0.1
			C116,22.3,116,22.3,116,22.3z"/>
		<path fill="#EC008C" d="M117.1,22.5L117.1,22.5c0,0.1,0.1,0.2,0.2,0.2c0,0,0.1,0,0.1-0.1c0,0,0.1-0.1,0.1-0.1c0,0,0-0.1-0.1-0.1
			c0,0-0.1-0.1-0.1-0.1C117.2,22.3,117.1,22.4,117.1,22.5z"/>
		<circle fill="#EC008C" cx="106.6" cy="25.2" r="0.1"/>
		<circle fill="#EC008C" cx="107.9" cy="26.5" r="0.5"/>
		<circle fill="#EC008C" cx="106.6" cy="26.5" r="0.4"/>
		<circle fill="#EC008C" cx="105.2" cy="26.5" r="0.2"/>
		<circle fill="#EC008C" cx="105.2" cy="27.8" r="0.5"/>
		<path fill="#EC008C" d="M118.3,23.5c-0.1,0.1-0.1,0.2-0.1,0.3c0,0.3,0.2,0.5,0.5,0.5c0.3,0,0.5-0.2,0.5-0.5c0-0.3-0.2-0.5-0.5-0.5
			C118.5,23.3,118.4,23.4,118.3,23.5z"/>
		<path fill="#EC008C" d="M118.6,22.3c-0.1,0-0.1,0-0.1,0.1c0,0-0.1,0.1-0.1,0.1c0,0.1,0,0.1,0.1,0.1c0,0,0.1,0.1,0.1,0.1
			c0.1,0,0.1,0,0.1-0.1c0,0,0.1-0.1,0.1-0.1l0,0C118.8,22.4,118.7,22.3,118.6,22.3z"/>
		<circle fill="#EC008C" cx="98.5" cy="31.9" r="0.2"/>
		<circle fill="#EC008C" cx="97.2" cy="31.9" r="0.1"/>
		<path fill="#EC008C" d="M98.1,33.2c0-0.3,0.2-0.5,0.5-0.5c0.3,0,0.5,0.2,0.5,0.5c0,0.3-0.2,0.5-0.5,0.5
			C98.3,33.7,98.1,33.5,98.1,33.2z"/>
		<circle fill="#EC008C" cx="97.2" cy="33.2" r="0.2"/>
		<circle fill="#EC008C" cx="95.8" cy="33.2" r="0.1"/>
		<circle fill="#EC008C" cx="97.2" cy="34.5" r="0.4"/>
		<circle fill="#EC008C" cx="95.8" cy="34.5" r="0.2"/>
		<circle fill="#EC008C" cx="94.5" cy="34.5" r="0.1"/>
		<circle fill="#EC008C" cx="95.8" cy="35.9" r="0.3"/>
		<circle fill="#EC008C" cx="94.5" cy="35.9" r="0.1"/>
		<circle fill="#EC008C" cx="93.2" cy="43.9" r="0.5"/>
		<circle fill="#EC008C" cx="93.2" cy="42.6" r="0.4"/>
		<circle fill="#EC008C" cx="93.2" cy="41.3" r="0.3"/>
		<circle fill="#EC008C" cx="93.2" cy="39.9" r="0.2"/>
		<circle fill="#EC008C" cx="91.8" cy="41.3" r="0.1"/>
		<circle fill="#EC008C" cx="90.5" cy="43.9" r="0.1"/>
		<circle fill="#EC008C" cx="134.7" cy="74.8" r="0.1"/>
		<circle fill="#EC008C" cx="125.3" cy="78.8" r="0.1"/>
		<circle fill="#EC008C" cx="142.8" cy="66.7" r="0.1"/>
		<circle fill="#EC008C" cx="146.8" cy="57.3" r="0.1"/>
		<circle fill="#EC008C" cx="134.7" cy="26.5" r="0.1"/>
		<circle fill="#EC008C" cx="125.3" cy="22.5" r="0.1"/>
		<circle fill="#EC008C" cx="142.8" cy="34.5" r="0.1"/>
		<circle fill="#EC008C" cx="146.8" cy="43.9" r="0.1"/>
		<circle fill="#EC008C" cx="91.8" cy="39.9" r="0.1"/>
		<circle fill="#EC008C" cx="93.2" cy="37.2" r="0.1"/>
		<circle fill="#EC008C" cx="91.8" cy="42.6" r="0.1"/>
		<circle fill="#EC008C" cx="91.8" cy="43.9" r="0.2"/>
		<circle fill="#EC008C" cx="91.8" cy="45.3" r="0.3"/>
		<circle fill="#EC008C" cx="90.5" cy="45.3" r="0.1"/>
		<circle fill="#EC008C" cx="93.2" cy="38.6" r="0.1"/>
		<circle fill="#EC008C" cx="94.5" cy="39.9" r="0.5"/>
		<circle fill="#EC008C" cx="94.5" cy="38.6" r="0.4"/>
		<circle fill="#EC008C" cx="94.5" cy="37.2" r="0.2"/>
		<circle fill="#EC008C" cx="95.8" cy="37.2" r="0.5"/>
		<circle fill="#EC008C" cx="138.8" cy="70.8" r="0.1"/>
		<path fill="#EC008C" d="M137.4,69.9c0.3,0,0.5-0.2,0.5-0.5c0-0.3-0.2-0.5-0.5-0.5c-0.3,0-0.5,0.2-0.5,0.5
			C136.9,69.7,137.1,69.9,137.4,69.9z"/>
		<path fill="#EC008C" d="M137.4,71c0.1,0,0.2-0.1,0.2-0.2c0-0.1-0.1-0.2-0.2-0.2c-0.1,0-0.2,0.1-0.2,0.2
			C137.2,70.9,137.3,71,137.4,71z"/>
		<circle fill="#EC008C" cx="137.4" cy="72.1" r="0.1"/>
		<circle fill="#EC008C" cx="136.1" cy="70.7" r="0.5"/>
		<circle fill="#EC008C" cx="136.1" cy="72.1" r="0.2"/>
		<circle fill="#EC008C" cx="136.1" cy="73.4" r="0.1"/>
		<circle fill="#EC008C" cx="134.7" cy="72.1" r="0.4"/>
		<circle fill="#EC008C" cx="134.7" cy="73.4" r="0.2"/>
		<circle fill="#EC008C" cx="133.4" cy="73.4" r="0.3"/>
		<circle fill="#EC008C" cx="133.4" cy="74.8" r="0.1"/>
		<circle fill="#EC008C" cx="125.3" cy="76.1" r="0.5"/>
		<circle fill="#EC008C" cx="126.7" cy="76.1" r="0.4"/>
		<circle fill="#EC008C" cx="128" cy="76.1" r="0.3"/>
		<circle fill="#EC008C" cx="129.4" cy="76.1" r="0.2"/>
		<circle fill="#EC008C" cx="128" cy="77.5" r="0.1"/>
		<circle fill="#EC008C" cx="129.4" cy="77.5" r="0.1"/>
		<path fill="#EC008C" d="M132.1,76.1C132.1,76.1,132.1,76.2,132.1,76.1c-0.1,0.1-0.1,0-0.1,0C132,76.1,132,76,132.1,76.1
			C132.1,76,132.1,76.1,132.1,76.1z"/>
		<circle fill="#EC008C" cx="126.7" cy="77.5" r="0.1"/>
		<circle fill="#EC008C" cx="125.3" cy="77.5" r="0.2"/>
		<circle fill="#EC008C" cx="124" cy="77.5" r="0.3"/>
		<path fill="#EC008C" d="M124.1,78.8C124.1,78.8,124.1,78.9,124.1,78.8c-0.1,0.1-0.2,0.1-0.2,0C123.9,78.7,124,78.7,124.1,78.8
			C124.1,78.7,124.1,78.7,124.1,78.8z"/>
		<circle fill="#EC008C" cx="130.7" cy="76.1" r="0.1"/>
		<circle fill="#EC008C" cx="129.4" cy="74.8" r="0.5"/>
		<circle fill="#EC008C" cx="130.7" cy="74.8" r="0.4"/>
		<path fill="#EC008C" d="M132.2,74.8c0,0.1-0.1,0.2-0.2,0.2c-0.1,0-0.2-0.1-0.2-0.2c0-0.1,0.1-0.2,0.2-0.2
			C132.1,74.6,132.2,74.7,132.2,74.8z"/>
		<path fill="#EC008C" d="M132.5,73.4c0,0.3-0.2,0.5-0.5,0.5c-0.3,0-0.5-0.2-0.5-0.5c0-0.3,0.2-0.5,0.5-0.5
			C132.3,72.9,132.5,73.2,132.5,73.4z"/>
		<path fill="#EC008C" d="M139,69.4c0,0.1-0.1,0.2-0.2,0.2c-0.1,0-0.2-0.1-0.2-0.2c0-0.1,0.1-0.2,0.2-0.2
			C138.9,69.2,139,69.3,139,69.4z"/>
		<path fill="#EC008C" d="M140.2,69.4c0,0.1,0,0.1-0.1,0.1c-0.1,0-0.1,0-0.1-0.1c0-0.1,0-0.1,0.1-0.1
			C140.1,69.3,140.2,69.4,140.2,69.4z"/>
		<circle fill="#EC008C" cx="138.8" cy="68.1" r="0.5"/>
		<circle fill="#EC008C" cx="140.1" cy="68.1" r="0.2"/>
		<circle fill="#EC008C" cx="141.4" cy="68.1" r="0.1"/>
		<path fill="#EC008C" d="M140.5,66.7c0,0.2-0.2,0.4-0.4,0.4c-0.2,0-0.4-0.2-0.4-0.4c0-0.2,0.2-0.4,0.4-0.4
			C140.3,66.3,140.5,66.5,140.5,66.7z"/>
		<circle fill="#EC008C" cx="141.4" cy="66.7" r="0.2"/>
		<circle fill="#EC008C" cx="141.4" cy="65.4" r="0.3"/>
		<circle fill="#EC008C" cx="142.8" cy="65.4" r="0.1"/>
		<circle fill="#EC008C" cx="144.1" cy="57.3" r="0.5"/>
		<circle fill="#EC008C" cx="144.1" cy="58.7" r="0.4"/>
		<circle fill="#EC008C" cx="144.1" cy="60" r="0.3"/>
		<circle fill="#EC008C" cx="144.1" cy="61.4" r="0.2"/>
		<circle fill="#EC008C" cx="145.5" cy="60" r="0.1"/>
		<circle fill="#EC008C" cx="145.5" cy="61.4" r="0.1"/>
		<path fill="#EC008C" d="M144.1,64.1C144.1,64.1,144.2,64.1,144.1,64.1c0.1-0.1,0-0.1,0-0.1C144.1,64,144,64,144.1,64.1
			C144,64.1,144.1,64.1,144.1,64.1z"/>
		<circle fill="#EC008C" cx="145.5" cy="58.7" r="0.1"/>
		<path fill="#EC008C" d="M145.5,57.5c0.1,0,0.2-0.1,0.2-0.2c0-0.1-0.1-0.2-0.2-0.2c-0.1,0-0.2,0.1-0.2,0.2
			C145.3,57.5,145.3,57.5,145.5,57.5z"/>
		<circle fill="#EC008C" cx="145.5" cy="56" r="0.3"/>
		<path fill="#EC008C" d="M146.8,56.1C146.8,56.1,146.9,56.1,146.8,56.1c0.1-0.1,0-0.2,0-0.2C146.7,55.9,146.7,55.9,146.8,56.1
			C146.7,56.1,146.7,56.1,146.8,56.1z"/>
		<circle fill="#EC008C" cx="144.1" cy="62.7" r="0.1"/>
		<circle fill="#EC008C" cx="142.8" cy="61.4" r="0.5"/>
		<circle fill="#EC008C" cx="142.8" cy="62.7" r="0.4"/>
		<circle fill="#EC008C" cx="142.8" cy="64" r="0.2"/>
		<circle fill="#EC008C" cx="141.4" cy="64" r="0.5"/>
		<circle fill="#EC008C" cx="138.8" cy="30.5" r="0.1"/>
		<path fill="#EC008C" d="M137.4,31.4c0.3,0,0.5,0.2,0.5,0.5c0,0.3-0.2,0.5-0.5,0.5c-0.3,0-0.5-0.2-0.5-0.5
			C136.9,31.6,137.1,31.4,137.4,31.4z"/>
		<circle fill="#EC008C" cx="137.4" cy="30.5" r="0.2"/>
		<circle fill="#EC008C" cx="137.4" cy="29.2" r="0.1"/>
		<circle fill="#EC008C" cx="136.1" cy="30.5" r="0.5"/>
		<circle fill="#EC008C" cx="136.1" cy="29.2" r="0.2"/>
		<circle fill="#EC008C" cx="136.1" cy="27.8" r="0.1"/>
		<circle fill="#EC008C" cx="134.7" cy="29.2" r="0.4"/>
		<circle fill="#EC008C" cx="134.7" cy="27.8" r="0.2"/>
		<circle fill="#EC008C" cx="133.4" cy="27.8" r="0.3"/>
		<circle fill="#EC008C" cx="133.4" cy="26.5" r="0.1"/>
		<circle fill="#EC008C" cx="125.3" cy="25.2" r="0.5"/>
		<circle fill="#EC008C" cx="126.7" cy="25.2" r="0.4"/>
		<circle fill="#EC008C" cx="128" cy="25.2" r="0.3"/>
		<circle fill="#EC008C" cx="129.4" cy="25.2" r="0.2"/>
		<circle fill="#EC008C" cx="128" cy="23.8" r="0.1"/>
		<circle fill="#EC008C" cx="129.4" cy="23.8" r="0.1"/>
		<path fill="#EC008C" d="M132.1,25.2C132.1,25.1,132.1,25.1,132.1,25.2c-0.1-0.1-0.1,0-0.1,0C132,25.2,132,25.2,132.1,25.2
			C132.1,25.2,132.1,25.2,132.1,25.2z"/>
		<circle fill="#EC008C" cx="126.7" cy="23.8" r="0.1"/>
		<circle fill="#EC008C" cx="125.3" cy="23.8" r="0.2"/>
		<circle fill="#EC008C" cx="124" cy="23.8" r="0.3"/>
		<path fill="#EC008C" d="M122.7,23.4c-0.2,0-0.4,0.2-0.4,0.4c0,0.2,0.2,0.4,0.4,0.4c0.2,0,0.4-0.2,0.4-0.4l0,0c0-0.1,0-0.2-0.1-0.3
			C122.9,23.5,122.8,23.4,122.7,23.4z M123,23.8L123,23.8L123,23.8L123,23.8z"/>
		<path fill="#EC008C" d="M120.9,23.8c0,0.1,0,0.2,0.1,0.3c0.1,0.1,0.2,0.1,0.3,0.1l0,0c0.1,0,0.2,0,0.3-0.1
			c0.1-0.1,0.1-0.2,0.1-0.3l0,0c0-0.2-0.2-0.4-0.4-0.4S120.9,23.6,120.9,23.8z M121.7,23.8L121.7,23.8L121.7,23.8L121.7,23.8z"/>
		<path fill="#EC008C" d="M119.5,23.8c0,0.3,0.2,0.5,0.5,0.5c0.2,0,0.5-0.2,0.5-0.5l0,0c0-0.3-0.2-0.5-0.5-0.5
			C119.7,23.4,119.5,23.6,119.5,23.8z"/>
		<circle fill="#EC008C" cx="124" cy="22.5" r="0.1"/>
		<path fill="#EC008C" d="M122.5,22.5c0,0.1,0.1,0.2,0.2,0.2c0.1,0,0.2-0.1,0.2-0.2s-0.1-0.2-0.2-0.2
			C122.6,22.3,122.5,22.4,122.5,22.5z"/>
		<path fill="#EC008C" d="M121.1,22.5c0,0,0,0.1,0,0.1c0,0,0.1,0.1,0.1,0.1c0.1,0,0.2-0.1,0.2-0.2c0-0.1-0.1-0.2-0.2-0.2
			C121.2,22.3,121.1,22.4,121.1,22.5z"/>
		<path fill="#EC008C" d="M119.8,22.5c0,0.1,0.1,0.2,0.2,0.2c0.1,0,0.2-0.1,0.2-0.2s-0.1-0.2-0.2-0.2
			C119.9,22.3,119.8,22.4,119.8,22.5z"/>
		<circle fill="#EC008C" cx="130.7" cy="25.2" r="0.1"/>
		<path fill="#EC008C" d="M91.8,55L91.8,55c0.2,0,0.4-0.2,0.4-0.4c0-0.2-0.2-0.4-0.4-0.4s-0.4,0.2-0.4,0.4
			C91.4,54.9,91.6,55,91.8,55z"/>
		<path fill="#EC008C" d="M91.5,53.6c0.1,0.1,0.2,0.1,0.3,0.1l0,0c0.1,0,0.2,0,0.3-0.1c0.1-0.1,0.1-0.2,0.1-0.3
			c0-0.2-0.2-0.4-0.4-0.4c-0.2,0-0.4,0.2-0.4,0.4C91.4,53.4,91.5,53.5,91.5,53.6z"/>
		<path fill="#EC008C" d="M91.5,52.3c0.1,0.1,0.2,0.1,0.3,0.1c0.1,0,0.2,0,0.3-0.1c0.1-0.1,0.1-0.2,0.1-0.3c0-0.3-0.2-0.5-0.5-0.5
			c-0.3,0-0.5,0.2-0.5,0.5C91.4,52.1,91.4,52.2,91.5,52.3z"/>
		<path fill="#EC008C" d="M90.5,54.8L90.5,54.8c0.1,0,0.2-0.1,0.2-0.2c0-0.1-0.1-0.2-0.2-0.2s-0.2,0.1-0.2,0.2
			C90.3,54.7,90.4,54.8,90.5,54.8z"/>
		<path fill="#EC008C" d="M90.3,53.3c0,0.1,0.1,0.2,0.2,0.2l0,0c0.1,0,0.2-0.1,0.2-0.2c0-0.1-0.1-0.2-0.2-0.2c0,0-0.1,0-0.1,0
			C90.3,53.2,90.3,53.3,90.3,53.3z"/>
		<path fill="#EC008C" d="M90.5,52.2L90.5,52.2c0.1,0,0.2-0.1,0.2-0.2c0,0,0-0.1-0.1-0.1c0,0-0.1-0.1-0.1-0.1c0,0-0.1,0-0.1,0.1
			c0,0-0.1,0.1-0.1,0.1C90.3,52.1,90.4,52.2,90.5,52.2z"/>
		<path fill="#EC008C" d="M91.5,51c0.1,0.1,0.2,0.1,0.3,0.1c0.3,0,0.5-0.2,0.5-0.5c0-0.3-0.2-0.5-0.5-0.5c-0.3,0-0.5,0.2-0.5,0.5
			C91.3,50.8,91.4,50.9,91.5,51z"/>
		<path fill="#EC008C" d="M90.3,50.6c0,0.1,0,0.1,0.1,0.1c0,0,0.1,0.1,0.1,0.1c0.1,0,0.1,0,0.1-0.1c0,0,0.1-0.1,0.1-0.1
			c0,0,0-0.1-0.1-0.1c0,0-0.1-0.1-0.1-0.1l0,0C90.4,50.4,90.3,50.5,90.3,50.6z"/>
		<path fill="#EC008C" d="M91.4,46.6c0,0.2,0.2,0.4,0.4,0.4c0.2,0,0.4-0.2,0.4-0.4c0-0.2-0.2-0.4-0.4-0.4l0,0c-0.1,0-0.2,0-0.3,0.1
			C91.5,46.4,91.4,46.5,91.4,46.6z"/>
		<path fill="#EC008C" d="M91.8,48.4c0.1,0,0.2,0,0.3-0.1c0.1-0.1,0.1-0.2,0.1-0.3l0,0c0-0.1,0-0.2-0.1-0.3
			c-0.1-0.1-0.2-0.1-0.3-0.1h0c-0.2,0-0.4,0.2-0.4,0.4C91.4,48.2,91.6,48.4,91.8,48.4z M91.8,47.5L91.8,47.5L91.8,47.5L91.8,47.5z"
			/>
		<path fill="#EC008C" d="M91.8,49.7c0.3,0,0.5-0.2,0.5-0.5c0-0.3-0.2-0.5-0.5-0.5l0,0c-0.3,0-0.5,0.2-0.5,0.5
			C91.4,49.5,91.6,49.7,91.8,49.7z"/>
		<path fill="#EC008C" d="M90.5,46.8c0.1,0,0.2-0.1,0.2-0.2c0-0.1-0.1-0.2-0.2-0.2s-0.2,0.1-0.2,0.2C90.3,46.7,90.4,46.8,90.5,46.8z
			"/>
		<path fill="#EC008C" d="M90.5,48.1c0,0,0.1,0,0.1-0.1c0,0,0.1-0.1,0.1-0.1c0-0.1-0.1-0.2-0.2-0.2c-0.1,0-0.2,0.1-0.2,0.2
			C90.3,48.1,90.4,48.1,90.5,48.1z"/>
		<path fill="#EC008C" d="M90.5,49.5c0.1,0,0.2-0.1,0.2-0.2c0-0.1-0.1-0.2-0.2-0.2s-0.2,0.1-0.2,0.2C90.3,49.4,90.4,49.5,90.5,49.5z
			"/>
		<path fill="#EC008C" d="M123,77.5L123,77.5c0-0.2-0.2-0.4-0.4-0.4c-0.2,0-0.4,0.2-0.4,0.4c0,0.2,0.2,0.4,0.4,0.4
			S123,77.7,123,77.5z"/>
		<path fill="#EC008C" d="M121.6,77.7c0.1-0.1,0.1-0.2,0.1-0.3l0,0c0-0.1,0-0.2-0.1-0.3c-0.1-0.1-0.2-0.1-0.3-0.1
			c-0.2,0-0.4,0.2-0.4,0.4c0,0.2,0.2,0.4,0.4,0.4C121.4,77.9,121.5,77.8,121.6,77.7z"/>
		<path fill="#EC008C" d="M120.3,77.8c0.1-0.1,0.1-0.2,0.1-0.3c0-0.1,0-0.2-0.1-0.3c-0.1-0.1-0.2-0.1-0.3-0.1
			c-0.3,0-0.5,0.2-0.5,0.5c0,0.3,0.2,0.5,0.5,0.5C120.1,77.9,120.2,77.9,120.3,77.8z"/>
		<path fill="#EC008C" d="M122.8,78.8L122.8,78.8c0-0.1-0.1-0.2-0.2-0.2c-0.1,0-0.2,0.1-0.2,0.2c0,0.1,0.1,0.2,0.2,0.2
			C122.7,79,122.8,78.9,122.8,78.8z"/>
		<path fill="#EC008C" d="M121.3,79c0.1,0,0.2-0.1,0.2-0.2l0,0c0-0.1-0.1-0.2-0.2-0.2c-0.1,0-0.2,0.1-0.2,0.2c0,0,0,0.1,0,0.1
			C121.2,79,121.3,79,121.3,79z"/>
		<path fill="#EC008C" d="M120.2,78.8L120.2,78.8c0-0.1-0.1-0.2-0.2-0.2c0,0-0.1,0-0.1,0.1c0,0-0.1,0.1-0.1,0.1c0,0,0,0.1,0.1,0.1
			c0,0,0.1,0.1,0.1,0.1C120.1,79,120.2,78.9,120.2,78.8z"/>
		<path fill="#EC008C" d="M119,77.8c0.1-0.1,0.1-0.2,0.1-0.3c0-0.3-0.2-0.5-0.5-0.5c-0.3,0-0.5,0.2-0.5,0.5c0,0.3,0.2,0.5,0.5,0.5
			C118.8,77.9,118.9,77.9,119,77.8z"/>
		<path fill="#EC008C" d="M118.6,79c0.1,0,0.1,0,0.1-0.1c0,0,0.1-0.1,0.1-0.1c0-0.1,0-0.1-0.1-0.1c0,0-0.1-0.1-0.1-0.1
			c-0.1,0-0.1,0-0.1,0.1c0,0-0.1,0.1-0.1,0.1l0,0C118.5,78.9,118.5,79,118.6,79z"/>
		<path fill="#EC008C" d="M114.6,77.8c0.2,0,0.4-0.2,0.4-0.4c0-0.2-0.2-0.4-0.4-0.4c-0.2,0-0.4,0.2-0.4,0.4l0,0c0,0.1,0,0.2,0.1,0.3
			C114.4,77.8,114.5,77.8,114.6,77.8z"/>
		<path fill="#EC008C" d="M116.4,77.5c0-0.1,0-0.2-0.1-0.3c-0.1-0.1-0.2-0.1-0.3-0.1l0,0c-0.1,0-0.2,0-0.3,0.1
			c-0.1,0.1-0.1,0.2-0.1,0.3l0,0c0,0.2,0.2,0.4,0.4,0.4C116.2,77.9,116.4,77.7,116.4,77.5z M115.5,77.5L115.5,77.5L115.5,77.5
			L115.5,77.5z"/>
		<path fill="#EC008C" d="M117.8,77.5c0-0.3-0.2-0.5-0.5-0.5c-0.3,0-0.5,0.2-0.5,0.5l0,0c0,0.3,0.2,0.5,0.5,0.5
			C117.5,77.9,117.8,77.7,117.8,77.5z"/>
		<path fill="#EC008C" d="M114.8,78.8c0-0.1-0.1-0.2-0.2-0.2c-0.1,0-0.2,0.1-0.2,0.2c0,0.1,0.1,0.2,0.2,0.2
			C114.7,79,114.8,78.9,114.8,78.8z"/>
		<path fill="#EC008C" d="M116.1,78.8c0-0.1,0-0.1-0.1-0.1c0,0-0.1-0.1-0.1-0.1c-0.1,0-0.2,0.1-0.2,0.2c0,0.1,0.1,0.2,0.2,0.2
			C116.1,79,116.1,78.9,116.1,78.8z"/>
		<path fill="#EC008C" d="M117.5,78.8c0-0.1-0.1-0.2-0.2-0.2c-0.1,0-0.2,0.1-0.2,0.2c0,0.1,0.1,0.2,0.2,0.2
			C117.4,79,117.5,78.9,117.5,78.8z"/>
		<path fill="#EC008C" d="M145.5,46.2L145.5,46.2c-0.2,0-0.4,0.2-0.4,0.4c0,0.2,0.2,0.4,0.4,0.4s0.4-0.2,0.4-0.4
			C145.8,46.4,145.7,46.2,145.5,46.2z"/>
		<path fill="#EC008C" d="M145.7,47.7c-0.1-0.1-0.2-0.1-0.3-0.1l0,0c-0.1,0-0.2,0-0.3,0.1c-0.1,0.1-0.1,0.2-0.1,0.3
			c0,0.2,0.2,0.4,0.4,0.4c0.2,0,0.4-0.2,0.4-0.4C145.9,47.8,145.8,47.7,145.7,47.7z"/>
		<path fill="#EC008C" d="M145.8,49c-0.1-0.1-0.2-0.1-0.3-0.1c-0.1,0-0.2,0-0.3,0.1c-0.1,0.1-0.1,0.2-0.1,0.3c0,0.2,0.2,0.5,0.5,0.5
			s0.5-0.2,0.5-0.5C145.9,49.2,145.9,49.1,145.8,49z"/>
		<path fill="#EC008C" d="M146.8,46.5L146.8,46.5c-0.1,0-0.2,0.1-0.2,0.2c0,0.1,0.1,0.2,0.2,0.2c0.1,0,0.2-0.1,0.2-0.2
			C147,46.5,146.9,46.5,146.8,46.5z"/>
		<path fill="#EC008C" d="M147,48c0-0.1-0.1-0.2-0.2-0.2l0,0c-0.1,0-0.2,0.1-0.2,0.2c0,0.1,0.1,0.2,0.2,0.2c0,0,0.1,0,0.1-0.1
			C147,48,147,48,147,48z"/>
		<path fill="#EC008C" d="M146.8,49.1L146.8,49.1c-0.1,0-0.2,0.1-0.2,0.2c0,0,0,0.1,0.1,0.1c0,0,0.1,0.1,0.1,0.1c0,0,0.1,0,0.1-0.1
			c0,0,0.1-0.1,0.1-0.1C147,49.2,146.9,49.1,146.8,49.1z"/>
		<path fill="#EC008C" d="M145.8,50.3c-0.1-0.1-0.2-0.1-0.3-0.1c-0.3,0-0.5,0.2-0.5,0.5c0,0.3,0.2,0.5,0.5,0.5
			c0.3,0,0.5-0.2,0.5-0.5C145.9,50.5,145.9,50.4,145.8,50.3z"/>
		<path fill="#EC008C" d="M147,50.6c0,0,0-0.1-0.1-0.1c0,0-0.1-0.1-0.1-0.1c-0.1,0-0.1,0-0.1,0.1c0,0-0.1,0.1-0.1,0.1
			c0,0,0,0.1,0.1,0.1c0,0,0.1,0.1,0.1,0.1l0,0C146.9,50.8,147,50.7,147,50.6z"/>
		<path fill="#EC008C" d="M145.8,54.7c0-0.2-0.2-0.4-0.4-0.4s-0.4,0.2-0.4,0.4c0,0.2,0.2,0.4,0.4,0.4l0,0c0.1,0,0.2,0,0.3-0.1
			C145.8,54.9,145.8,54.8,145.8,54.7z"/>
		<path fill="#EC008C" d="M145.5,52.9c-0.1,0-0.2,0-0.3,0.1c-0.1,0.1-0.1,0.2-0.1,0.3l0,0c0,0.1,0,0.2,0.1,0.3
			c0.1,0.1,0.2,0.1,0.3,0.1l0,0c0.2,0,0.4-0.2,0.4-0.4C145.9,53.1,145.7,52.9,145.5,52.9z M145.5,53.7L145.5,53.7L145.5,53.7
			L145.5,53.7z"/>
		<path fill="#EC008C" d="M145.5,51.5c-0.3,0-0.5,0.2-0.5,0.5c0,0.2,0.2,0.5,0.5,0.5l0,0c0.3,0,0.5-0.2,0.5-0.5
			C145.9,51.7,145.7,51.5,145.5,51.5z"/>
		<path fill="#EC008C" d="M146.8,54.5c-0.1,0-0.2,0.1-0.2,0.2c0,0.1,0.1,0.2,0.2,0.2c0.1,0,0.2-0.1,0.2-0.2
			C147,54.6,146.9,54.5,146.8,54.5z"/>
		<path fill="#EC008C" d="M146.8,53.1c-0.1,0-0.1,0-0.1,0c0,0-0.1,0.1-0.1,0.1c0,0.1,0.1,0.2,0.2,0.2c0.1,0,0.2-0.1,0.2-0.2
			C147,53.2,146.9,53.1,146.8,53.1z"/>
		<path fill="#EC008C" d="M146.8,51.8c-0.1,0-0.2,0.1-0.2,0.2c0,0.1,0.1,0.2,0.2,0.2c0.1,0,0.2-0.1,0.2-0.2
			C147,51.9,146.9,51.8,146.8,51.8z"/>
		<circle fill="#EC008C" cx="129.4" cy="26.5" r="0.5"/>
		<circle fill="#EC008C" cx="130.7" cy="26.5" r="0.4"/>
		<path fill="#EC008C" d="M132.2,26.5c0-0.1-0.1-0.2-0.2-0.2c-0.1,0-0.2,0.1-0.2,0.2c0,0.1,0.1,0.2,0.2,0.2
			C132.1,26.7,132.2,26.6,132.2,26.5z"/>
		<circle fill="#EC008C" cx="132" cy="27.8" r="0.5"/>
		<path fill="#EC008C" d="M139,31.9c0-0.1-0.1-0.2-0.2-0.2c-0.1,0-0.2,0.1-0.2,0.2c0,0.1,0.1,0.2,0.2,0.2
			C138.9,32.1,139,32,139,31.9z"/>
		<path fill="#EC008C" d="M140.2,31.9c0-0.1,0-0.1-0.1-0.1c-0.1,0-0.1,0-0.1,0.1c0,0.1,0,0.1,0.1,0.1
			C140.1,32,140.2,31.9,140.2,31.9z"/>
		<path fill="#EC008C" d="M139.2,33.2c0-0.3-0.2-0.5-0.5-0.5c-0.3,0-0.5,0.2-0.5,0.5c0,0.3,0.2,0.5,0.5,0.5
			C139,33.7,139.2,33.5,139.2,33.2z"/>
		<circle fill="#EC008C" cx="140.1" cy="33.2" r="0.2"/>
		<circle fill="#EC008C" cx="141.4" cy="33.2" r="0.1"/>
		<circle fill="#EC008C" cx="140.1" cy="34.5" r="0.4"/>
		<circle fill="#EC008C" cx="141.4" cy="34.5" r="0.2"/>
		<circle fill="#EC008C" cx="141.4" cy="35.9" r="0.3"/>
		<circle fill="#EC008C" cx="142.8" cy="35.9" r="0.1"/>
		<circle fill="#EC008C" cx="144.1" cy="43.9" r="0.5"/>
		<circle fill="#EC008C" cx="144.1" cy="42.6" r="0.4"/>
		<circle fill="#EC008C" cx="144.1" cy="41.3" r="0.3"/>
		<circle fill="#EC008C" cx="144.1" cy="39.9" r="0.2"/>
		<circle fill="#EC008C" cx="145.5" cy="41.3" r="0.1"/>
		<circle fill="#EC008C" cx="145.5" cy="39.9" r="0.1"/>
		<circle fill="#EC008C" cx="144.1" cy="37.2" r="0.1"/>
		<circle fill="#EC008C" cx="145.5" cy="42.6" r="0.1"/>
		<circle fill="#EC008C" cx="145.5" cy="43.9" r="0.2"/>
		<circle fill="#EC008C" cx="145.5" cy="45.3" r="0.3"/>
		<path fill="#EC008C" d="M146.8,45.2C146.8,45.2,146.9,45.2,146.8,45.2c0.1,0.1,0,0.2,0,0.2C146.7,45.4,146.7,45.3,146.8,45.2
			C146.7,45.2,146.7,45.2,146.8,45.2z"/>
		<circle fill="#EC008C" cx="144.1" cy="38.6" r="0.1"/>
		<circle fill="#EC008C" cx="142.8" cy="39.9" r="0.5"/>
		<circle fill="#EC008C" cx="142.8" cy="38.6" r="0.4"/>
		<circle fill="#EC008C" cx="142.8" cy="37.2" r="0.2"/>
		<circle fill="#EC008C" cx="141.4" cy="37.2" r="0.5"/>
	</g>
	<g>
		<g>
			<g>
				<g>
					<path fill="#EC008C" d="M144.9,52c0-0.3-0.1-0.5-0.4-0.7c0.1,0,0.1-0.1,0.1-0.1c0.2-0.2,0.2-0.4,0.2-0.6c0-0.3-0.2-0.5-0.4-0.7
						c0.2-0.1,0.4-0.4,0.4-0.7c0-0.3-0.2-0.6-0.4-0.7c0.2-0.1,0.4-0.4,0.4-0.6c0-0.3-0.2-0.6-0.5-0.7c0.3-0.1,0.4-0.4,0.4-0.7
						c0-0.4-0.3-0.7-0.7-0.7c-0.2,0-0.4,0.1-0.5,0.2c0,0-0.1,0.1-0.1,0.1c-0.1-0.1-0.2-0.2-0.3-0.3c0.1-0.1,0.2-0.2,0.3-0.4
						c0.1,0.2,0.3,0.4,0.6,0.4c0.3,0,0.6-0.3,0.6-0.6c0-0.3-0.3-0.6-0.6-0.6c-0.3,0-0.5,0.2-0.6,0.4c-0.1-0.2-0.2-0.4-0.4-0.5
						c0.2-0.1,0.4-0.4,0.4-0.7c0-0.3-0.2-0.6-0.4-0.7c0.2-0.1,0.4-0.4,0.4-0.7c0-0.4-0.3-0.7-0.6-0.7c0.3-0.1,0.5-0.3,0.5-0.6
						c0-0.3-0.3-0.6-0.6-0.6c-0.3,0-0.5,0.1-0.6,0.4c-0.1-0.2-0.2-0.3-0.4-0.4c0.2-0.1,0.3-0.4,0.3-0.6c0-0.3-0.2-0.6-0.5-0.7
						c0.2-0.1,0.4-0.3,0.4-0.6c0-0.4-0.3-0.7-0.7-0.7c-0.3,0-0.5,0.1-0.6,0.3c-0.1-0.2-0.2-0.3-0.4-0.4c0.2-0.1,0.3-0.4,0.3-0.6
						c0-0.4-0.3-0.7-0.7-0.7c0.3,0,0.6-0.3,0.6-0.6c0-0.3-0.3-0.6-0.6-0.6c-0.3,0-0.5,0.2-0.6,0.5c-0.1-0.3-0.2-0.5-0.5-0.6
						c0.2-0.1,0.4-0.3,0.4-0.6c0-0.4-0.3-0.7-0.7-0.7c-0.3,0-0.5,0.2-0.6,0.4c-0.1-0.2-0.2-0.4-0.4-0.4c0.2-0.1,0.4-0.3,0.4-0.6
						c0-0.4-0.3-0.7-0.7-0.7c-0.2,0-0.5,0.1-0.6,0.3c-0.1-0.2-0.2-0.3-0.4-0.4c0.2-0.1,0.3-0.3,0.3-0.6c0-0.4-0.3-0.7-0.7-0.7
						c-0.3,0-0.5,0.2-0.6,0.4c-0.1-0.2-0.2-0.4-0.4-0.4c0.2-0.1,0.4-0.3,0.4-0.6c0-0.4-0.3-0.7-0.7-0.7c-0.3,0-0.5,0.2-0.6,0.4
						c-0.1-0.3-0.3-0.5-0.6-0.5c0.3-0.1,0.5-0.3,0.5-0.6c0-0.3-0.3-0.6-0.6-0.6c-0.3,0-0.6,0.3-0.6,0.6c0-0.4-0.3-0.7-0.7-0.7
						c-0.3,0-0.5,0.1-0.6,0.3c-0.1-0.2-0.2-0.3-0.4-0.4c0.2-0.1,0.3-0.3,0.3-0.6c0-0.4-0.3-0.7-0.7-0.7c-0.3,0-0.5,0.2-0.6,0.4
						c-0.1-0.3-0.4-0.5-0.7-0.5c-0.3,0-0.5,0.1-0.6,0.3c-0.1-0.2-0.3-0.3-0.4-0.4c0.2-0.1,0.4-0.3,0.4-0.6c0-0.3-0.3-0.6-0.6-0.6
						c-0.3,0-0.6,0.2-0.6,0.5c0-0.4-0.4-0.6-0.7-0.6c-0.3,0-0.5,0.2-0.7,0.4c-0.1-0.3-0.4-0.4-0.7-0.4c-0.3,0-0.5,0.2-0.7,0.4
						c-0.1-0.2-0.3-0.3-0.5-0.4c0.2-0.1,0.4-0.3,0.4-0.6c0-0.3-0.3-0.6-0.6-0.6c-0.3,0-0.6,0.3-0.6,0.6c0,0.3,0.2,0.5,0.4,0.6
						c-0.2,0-0.3,0.1-0.4,0.3c-0.1-0.1-0.2-0.2-0.3-0.3c0.2-0.1,0.3-0.3,0.3-0.6c0-0.4-0.3-0.7-0.7-0.7c-0.3,0-0.5,0.2-0.7,0.4
						c-0.1-0.3-0.4-0.5-0.7-0.5c-0.3,0-0.5,0.2-0.6,0.4c-0.1-0.2-0.4-0.4-0.7-0.4c-0.3,0-0.5,0.1-0.7,0.4c0-0.1-0.1-0.1-0.1-0.1
						c-0.2-0.2-0.4-0.2-0.6-0.2c-0.3,0-0.5,0.2-0.7,0.4c-0.1-0.2-0.4-0.4-0.7-0.4c-0.3,0-0.6,0.2-0.7,0.4c-0.1-0.2-0.4-0.4-0.6-0.4
						c-0.3,0-0.6,0.2-0.7,0.5c-0.1-0.3-0.4-0.4-0.7-0.4c-0.4,0-0.7,0.3-0.7,0.7c0,0.2,0.1,0.4,0.2,0.5c0,0,0.1,0,0.1,0.1
						c-0.1,0.1-0.2,0.2-0.3,0.3c-0.1-0.1-0.2-0.2-0.4-0.3c0.2-0.1,0.4-0.3,0.4-0.6c0-0.3-0.3-0.6-0.6-0.6c-0.3,0-0.6,0.3-0.6,0.6
						c0,0.3,0.2,0.5,0.4,0.6c-0.2,0.1-0.4,0.2-0.5,0.4c-0.1-0.2-0.4-0.4-0.7-0.4c-0.3,0-0.6,0.2-0.7,0.4c-0.1-0.2-0.4-0.4-0.7-0.4
						c-0.4,0-0.7,0.3-0.7,0.6c-0.1-0.3-0.3-0.5-0.6-0.5c-0.3,0-0.6,0.3-0.6,0.6c0,0.2,0.1,0.5,0.4,0.6c-0.2,0.1-0.3,0.2-0.4,0.4
						c-0.1-0.2-0.4-0.3-0.6-0.3c-0.3,0-0.6,0.2-0.7,0.5c-0.1-0.2-0.3-0.4-0.6-0.4c-0.4,0-0.7,0.3-0.7,0.7c0,0.3,0.1,0.5,0.3,0.6
						c-0.2,0.1-0.3,0.2-0.4,0.4c-0.1-0.2-0.4-0.3-0.6-0.3c-0.4,0-0.7,0.3-0.7,0.7c0-0.3-0.3-0.6-0.6-0.6s-0.6,0.3-0.6,0.6
						c0,0.3,0.2,0.5,0.5,0.6c-0.3,0.1-0.5,0.2-0.6,0.5c-0.1-0.2-0.3-0.4-0.6-0.4c-0.4,0-0.7,0.3-0.7,0.7c0,0.3,0.2,0.5,0.4,0.6
						c-0.2,0.1-0.4,0.2-0.4,0.4c-0.1-0.2-0.3-0.4-0.6-0.4c-0.4,0-0.7,0.3-0.7,0.7c0,0.2,0.1,0.5,0.3,0.6c-0.2,0.1-0.3,0.2-0.4,0.4
						c-0.1-0.2-0.3-0.3-0.6-0.3c-0.4,0-0.7,0.3-0.7,0.7c0,0.3,0.2,0.5,0.4,0.6c-0.2,0.1-0.4,0.2-0.4,0.4c-0.1-0.2-0.3-0.4-0.6-0.4
						c-0.4,0-0.7,0.3-0.7,0.7c0,0.3,0.2,0.5,0.4,0.6c-0.3,0.1-0.5,0.3-0.5,0.6c-0.1-0.3-0.3-0.5-0.6-0.5c-0.3,0-0.6,0.3-0.6,0.6
						c0,0.3,0.3,0.6,0.6,0.6c-0.4,0-0.7,0.3-0.7,0.7c0,0.3,0.1,0.5,0.3,0.6c-0.2,0.1-0.3,0.2-0.4,0.4c-0.1-0.2-0.3-0.3-0.6-0.3
						c-0.4,0-0.7,0.3-0.7,0.7c0,0.3,0.2,0.5,0.4,0.6c-0.3,0.1-0.5,0.4-0.5,0.7c0,0.3,0.1,0.5,0.3,0.6c-0.2,0.1-0.3,0.3-0.4,0.4
						c-0.1-0.2-0.3-0.4-0.6-0.4c-0.3,0-0.6,0.3-0.6,0.6c0,0.3,0.2,0.6,0.5,0.6c-0.4,0.1-0.6,0.4-0.6,0.7c0,0.3,0.2,0.5,0.4,0.7
						c-0.3,0.1-0.4,0.4-0.4,0.7c0,0.3,0.2,0.5,0.4,0.7c-0.2,0.1-0.3,0.3-0.4,0.5c-0.1-0.2-0.3-0.4-0.6-0.4c-0.3,0-0.6,0.3-0.6,0.6
						c0,0.3,0.3,0.6,0.6,0.6c0.3,0,0.5-0.2,0.6-0.4c0,0.2,0.1,0.3,0.3,0.4c-0.1,0.1-0.2,0.2-0.3,0.3c-0.1-0.2-0.3-0.3-0.6-0.3
						c-0.4,0-0.7,0.3-0.7,0.7c0,0.3,0.2,0.5,0.4,0.7c-0.3,0.1-0.5,0.4-0.5,0.7c0,0.3,0.2,0.5,0.4,0.6c-0.2,0.1-0.4,0.4-0.4,0.7
						c0,0.3,0.1,0.5,0.4,0.7c-0.1,0-0.1,0.1-0.1,0.1c-0.2,0.2-0.2,0.4-0.2,0.6c0,0.3,0.2,0.5,0.4,0.7c-0.2,0.1-0.4,0.4-0.4,0.7
						c0,0.3,0.2,0.6,0.4,0.7c-0.2,0.1-0.4,0.4-0.4,0.6c0,0.3,0.2,0.6,0.5,0.7c-0.3,0.1-0.4,0.4-0.4,0.7c0,0.4,0.3,0.7,0.7,0.7
						c0.2,0,0.4-0.1,0.5-0.2c0,0,0-0.1,0.1-0.1c0.1,0.1,0.2,0.2,0.3,0.3c-0.1,0.1-0.2,0.2-0.3,0.4c-0.1-0.2-0.3-0.4-0.6-0.4
						c-0.3,0-0.6,0.3-0.6,0.6c0,0.3,0.3,0.6,0.6,0.6c0.3,0,0.5-0.2,0.6-0.4c0.1,0.2,0.2,0.4,0.4,0.5c-0.2,0.1-0.4,0.4-0.4,0.7
						c0,0.3,0.2,0.6,0.4,0.7c-0.2,0.1-0.4,0.4-0.4,0.7c0,0.4,0.3,0.7,0.6,0.7c-0.3,0.1-0.5,0.3-0.5,0.6c0,0.3,0.3,0.6,0.6,0.6
						c0.3,0,0.5-0.1,0.6-0.4c0.1,0.2,0.2,0.3,0.4,0.4c-0.2,0.1-0.3,0.4-0.3,0.6c0,0.3,0.2,0.6,0.5,0.7c-0.2,0.1-0.4,0.3-0.4,0.6
						c0,0.4,0.3,0.7,0.7,0.7c0.3,0,0.5-0.1,0.6-0.3c0.1,0.2,0.2,0.3,0.4,0.4c-0.2,0.1-0.3,0.4-0.3,0.6c0,0.4,0.3,0.7,0.7,0.7
						c-0.3,0-0.6,0.3-0.6,0.6c0,0.3,0.3,0.6,0.6,0.6c0.3,0,0.5-0.2,0.6-0.5c0.1,0.3,0.2,0.5,0.5,0.6c-0.2,0.1-0.4,0.3-0.4,0.6
						c0,0.4,0.3,0.7,0.7,0.7c0.3,0,0.5-0.2,0.6-0.4c0.1,0.2,0.2,0.4,0.4,0.4c-0.2,0.1-0.4,0.3-0.4,0.6c0,0.4,0.3,0.7,0.7,0.7
						c0.2,0,0.5-0.1,0.6-0.3c0.1,0.2,0.2,0.3,0.4,0.4c-0.2,0.1-0.3,0.3-0.3,0.6c0,0.4,0.3,0.7,0.7,0.7c0.3,0,0.5-0.2,0.6-0.4
						c0.1,0.2,0.2,0.4,0.4,0.4c-0.2,0.1-0.4,0.3-0.4,0.6c0,0.4,0.3,0.7,0.7,0.7c0.3,0,0.5-0.2,0.6-0.4c0.1,0.3,0.3,0.5,0.6,0.5
						c-0.3,0.1-0.5,0.3-0.5,0.6c0,0.3,0.3,0.6,0.6,0.6s0.6-0.3,0.6-0.6c0,0.4,0.3,0.7,0.7,0.7c0.3,0,0.5-0.1,0.6-0.3
						c0.1,0.2,0.2,0.3,0.4,0.4c-0.2,0.1-0.3,0.3-0.3,0.6c0,0.4,0.3,0.7,0.7,0.7c0.3,0,0.5-0.2,0.6-0.4c0.1,0.3,0.4,0.5,0.7,0.5
						c0.3,0,0.5-0.1,0.6-0.3c0.1,0.2,0.3,0.3,0.4,0.4c-0.2,0.1-0.4,0.3-0.4,0.6c0,0.3,0.3,0.6,0.6,0.6c0.3,0,0.6-0.2,0.6-0.5
						c0.1,0.4,0.4,0.6,0.7,0.6c0.3,0,0.5-0.2,0.7-0.4c0.1,0.3,0.4,0.4,0.7,0.4c0.3,0,0.5-0.2,0.7-0.4c0.1,0.2,0.3,0.3,0.5,0.4
						c-0.2,0.1-0.4,0.3-0.4,0.6c0,0.3,0.3,0.6,0.6,0.6c0.3,0,0.6-0.3,0.6-0.6c0-0.3-0.2-0.5-0.4-0.6c0.2,0,0.3-0.1,0.4-0.3
						c0.1,0.1,0.2,0.2,0.3,0.3c-0.2,0.1-0.3,0.3-0.3,0.6c0,0.4,0.3,0.7,0.7,0.7c0.3,0,0.5-0.2,0.7-0.4c0.1,0.3,0.4,0.5,0.7,0.5
						c0.3,0,0.5-0.2,0.6-0.4c0.1,0.3,0.4,0.4,0.7,0.4c0.3,0,0.5-0.1,0.7-0.4c0,0.1,0.1,0.1,0.1,0.1c0.2,0.2,0.4,0.2,0.6,0.2
						c0.3,0,0.5-0.2,0.7-0.4c0.1,0.2,0.4,0.4,0.7,0.4c0.3,0,0.6-0.2,0.7-0.4c0.1,0.2,0.4,0.4,0.7,0.4c0.3,0,0.6-0.2,0.7-0.5
						c0.1,0.3,0.4,0.4,0.7,0.4c0.4,0,0.7-0.3,0.7-0.7c0-0.2-0.1-0.4-0.2-0.5c0,0-0.1-0.1-0.1-0.1c0.1-0.1,0.2-0.2,0.3-0.3
						c0.1,0.1,0.2,0.2,0.4,0.3c-0.2,0.1-0.4,0.3-0.4,0.6c0,0.3,0.3,0.6,0.6,0.6c0.3,0,0.6-0.3,0.6-0.6c0-0.3-0.2-0.5-0.4-0.6
						c0.2-0.1,0.4-0.2,0.5-0.4c0.1,0.2,0.4,0.4,0.7,0.4c0.3,0,0.6-0.2,0.7-0.4c0.1,0.2,0.4,0.4,0.7,0.4c0.4,0,0.7-0.3,0.7-0.6
						c0.1,0.3,0.3,0.5,0.6,0.5c0.3,0,0.6-0.3,0.6-0.6c0-0.2-0.1-0.5-0.4-0.6c0.2-0.1,0.3-0.2,0.4-0.4c0.1,0.2,0.4,0.3,0.6,0.3
						c0.3,0,0.6-0.2,0.7-0.5c0.1,0.2,0.3,0.4,0.6,0.4c0.4,0,0.7-0.3,0.7-0.7c0-0.3-0.1-0.5-0.3-0.6c0.2-0.1,0.3-0.2,0.4-0.4
						c0.1,0.2,0.4,0.3,0.6,0.3c0.4,0,0.7-0.3,0.7-0.7c0,0.3,0.3,0.6,0.6,0.6c0.3,0,0.6-0.3,0.6-0.6c0-0.3-0.2-0.5-0.5-0.6
						c0.3-0.1,0.5-0.2,0.6-0.5c0.1,0.2,0.3,0.4,0.6,0.4c0.4,0,0.7-0.3,0.7-0.7c0-0.3-0.2-0.5-0.4-0.6c0.2-0.1,0.4-0.2,0.4-0.4
						c0.1,0.2,0.3,0.4,0.6,0.4c0.4,0,0.7-0.3,0.7-0.7c0-0.2-0.1-0.5-0.3-0.6c0.2-0.1,0.3-0.2,0.4-0.4c0.1,0.2,0.3,0.3,0.6,0.3
						c0.4,0,0.7-0.3,0.7-0.7c0-0.3-0.2-0.5-0.4-0.6c0.2-0.1,0.4-0.2,0.4-0.4c0.1,0.2,0.3,0.4,0.6,0.4c0.4,0,0.7-0.3,0.7-0.7
						c0-0.3-0.2-0.5-0.4-0.6c0.3-0.1,0.5-0.3,0.5-0.6c0.1,0.3,0.3,0.5,0.6,0.5c0.3,0,0.6-0.3,0.6-0.6c0-0.3-0.3-0.6-0.6-0.6
						c0.4,0,0.7-0.3,0.7-0.7c0-0.3-0.1-0.5-0.3-0.6c0.2-0.1,0.3-0.2,0.4-0.4c0.1,0.2,0.3,0.3,0.6,0.3c0.4,0,0.7-0.3,0.7-0.7
						c0-0.3-0.2-0.5-0.4-0.6c0.3-0.1,0.5-0.4,0.5-0.7c0-0.3-0.1-0.5-0.3-0.6c0.2-0.1,0.3-0.3,0.4-0.4c0.1,0.2,0.3,0.4,0.6,0.4
						c0.3,0,0.6-0.3,0.6-0.6c0-0.3-0.2-0.6-0.5-0.6c0.4,0,0.6-0.4,0.6-0.7c0-0.3-0.2-0.5-0.4-0.7c0.3-0.1,0.4-0.4,0.4-0.7
						c0-0.3-0.2-0.5-0.4-0.7c0.2-0.1,0.3-0.3,0.4-0.5c0.1,0.2,0.3,0.4,0.6,0.4c0.3,0,0.6-0.3,0.6-0.6c0-0.3-0.3-0.6-0.6-0.6
						c-0.3,0-0.5,0.2-0.6,0.4c0-0.2-0.1-0.3-0.3-0.4c0.1-0.1,0.2-0.2,0.3-0.3c0.1,0.2,0.3,0.3,0.6,0.3c0.4,0,0.7-0.3,0.7-0.7
						c0-0.3-0.2-0.5-0.4-0.7c0.3-0.1,0.5-0.4,0.5-0.7c0-0.3-0.2-0.5-0.4-0.6C144.7,52.5,144.9,52.3,144.9,52z M93.7,47
						c0.1,0.1,0.1,0.2,0.2,0.2c0,0,0,0-0.1,0.1c-0.1,0.1-0.1,0.1-0.1,0.2c-0.1-0.1-0.2-0.2-0.3-0.2C93.6,47.2,93.7,47.1,93.7,47z
						 M93.8,50.1c0-0.1-0.1-0.1-0.2-0.1c0.1,0,0.1-0.1,0.2-0.2c0,0,0.1,0.1,0.1,0.1c0,0,0,0,0,0C93.8,50,93.8,50,93.8,50.1z
						 M93.9,51.3C93.9,51.3,93.9,51.3,93.9,51.3c-0.1,0.1-0.1,0.1-0.1,0.1c-0.1-0.1-0.1-0.1-0.2-0.2c0.1,0,0.1-0.1,0.2-0.1
						C93.8,51.2,93.8,51.3,93.9,51.3z M93.8,48.8c-0.1-0.1-0.1-0.1-0.2-0.2c0.1-0.1,0.2-0.1,0.2-0.2c0,0.1,0.1,0.1,0.2,0.2
						C93.9,48.7,93.8,48.7,93.8,48.8z M93.7,52.5C93.7,52.5,93.7,52.5,93.7,52.5c0.1,0,0.2,0.1,0.2,0.1c-0.1,0.1-0.1,0.1-0.2,0.2
						c-0.1-0.1-0.1-0.1-0.2-0.2C93.6,52.6,93.7,52.6,93.7,52.5z M93.7,54.2C93.7,54.2,93.7,54.2,93.7,54.2c-0.1-0.1-0.2-0.2-0.3-0.2
						c0.1-0.1,0.2-0.1,0.3-0.2c0.1,0.1,0.1,0.2,0.2,0.2C93.9,54.1,93.8,54.1,93.7,54.2z M95.1,59.8c-0.1-0.2-0.3-0.3-0.5-0.4
						c0.2,0,0.3-0.1,0.5-0.3c0.1,0.1,0.1,0.2,0.2,0.3C95.2,59.5,95.1,59.6,95.1,59.8z M94.9,56.6c0,0,0,0.1,0,0.1
						C94.9,56.7,94.9,56.7,94.9,56.6C94.9,56.7,94.9,56.7,94.9,56.6z M94.9,44.6C94.9,44.6,94.9,44.5,94.9,44.6
						C95,44.6,95,44.6,94.9,44.6C94.9,44.6,94.9,44.6,94.9,44.6z M94.8,43.2c0.1,0,0.2-0.1,0.2-0.2c0,0,0.1,0.1,0.1,0.1
						c-0.1,0.1-0.1,0.1-0.1,0.2C95,43.3,94.9,43.3,94.8,43.2z M95,57.9c0,0.1,0.1,0.1,0.1,0.2c0,0-0.1,0.1-0.1,0.1
						c-0.1-0.1-0.1-0.1-0.2-0.2C94.9,58,95,58,95,57.9z M95.1,42.1c-0.1-0.1-0.3-0.2-0.5-0.3c0.2,0,0.4-0.2,0.5-0.3
						c0,0.1,0.1,0.3,0.2,0.3C95.2,41.9,95.1,42,95.1,42.1z M96.4,62.4c-0.1-0.1-0.2-0.2-0.3-0.3c0.1,0,0.2-0.1,0.3-0.1
						c0.1,0.1,0.1,0.2,0.2,0.2C96.5,62.2,96.5,62.3,96.4,62.4z M96.4,60.7C96.4,60.7,96.4,60.7,96.4,60.7c0,0.1,0,0.1,0,0.1
						C96.3,60.8,96.3,60.7,96.4,60.7C96.3,60.7,96.3,60.7,96.4,60.7z M96.3,40.5C96.3,40.5,96.3,40.5,96.3,40.5c0.1,0,0.1,0,0.1,0
						C96.4,40.6,96.4,40.6,96.3,40.5C96.3,40.6,96.3,40.6,96.3,40.5z M96.3,39.3c-0.1-0.1-0.2-0.1-0.3-0.1c0.1-0.1,0.3-0.2,0.3-0.3
						c0,0.1,0.1,0.2,0.1,0.2C96.5,39.2,96.4,39.2,96.3,39.3z M97.8,65.2c-0.1-0.3-0.3-0.5-0.6-0.5c0.2,0,0.4-0.1,0.6-0.3
						c0.1,0.1,0.2,0.2,0.3,0.3C97.9,64.9,97.8,65.1,97.8,65.2z M97.7,63.4c0,0.1,0.1,0.1,0.1,0.2c0,0,0,0.1-0.1,0.1
						c-0.1-0.1-0.1-0.1-0.2-0.2C97.6,63.4,97.7,63.4,97.7,63.4z M97.6,37.8c0.1,0,0.1-0.1,0.2-0.2c0,0,0,0.1,0.1,0.1
						c-0.1,0-0.1,0.1-0.1,0.2C97.7,37.9,97.6,37.9,97.6,37.8z M97.8,36.8c-0.1-0.2-0.3-0.3-0.6-0.3c0.3,0,0.5-0.2,0.6-0.5
						c0,0.2,0.1,0.3,0.3,0.5C97.9,36.6,97.8,36.7,97.8,36.8z M99.1,34.8c0,0.1,0.1,0.2,0.2,0.3c-0.1,0.1-0.2,0.2-0.2,0.3
						c-0.1-0.1-0.2-0.2-0.3-0.2C98.9,35.1,99.1,35,99.1,34.8z M99.1,66.4c-0.1-0.2-0.2-0.3-0.4-0.3c0.1,0,0.3-0.1,0.3-0.2
						c0.1,0.1,0.1,0.2,0.2,0.3C99.3,66.2,99.2,66.3,99.1,66.4z M100.4,67.7c-0.1-0.1-0.2-0.2-0.3-0.2c0.1,0,0.2-0.1,0.3-0.2
						c0,0.1,0.1,0.1,0.2,0.2C100.5,67.5,100.5,67.6,100.4,67.7z M100.4,34c-0.1-0.1-0.2-0.1-0.3-0.2c0.1-0.1,0.2-0.1,0.3-0.2
						c0,0.1,0.1,0.2,0.2,0.2C100.5,33.8,100.5,33.9,100.4,34z M101.8,69.1c-0.1-0.1-0.1-0.2-0.2-0.3c0.1,0,0.2-0.1,0.2-0.2
						c0.1,0.1,0.1,0.1,0.2,0.2C101.9,68.9,101.9,69,101.8,69.1z M101.8,32.6c-0.1-0.1-0.1-0.1-0.2-0.2c0.1-0.1,0.2-0.2,0.2-0.3
						c0,0.1,0.1,0.2,0.2,0.3C101.9,32.5,101.9,32.5,101.8,32.6z M126,26.8c0,0.1,0.1,0.2,0.2,0.2c0,0-0.1,0.1-0.1,0.1
						c-0.1-0.1-0.1-0.1-0.2-0.1C126,27,126,26.9,126,26.8z M124.7,26.9C124.7,26.9,124.7,26.9,124.7,26.9
						C124.7,27,124.7,27,124.7,26.9C124.7,26.9,124.7,26.9,124.7,26.9z M122,25.4c0.1,0.1,0.1,0.2,0.2,0.3c-0.1,0.1-0.2,0.1-0.2,0.2
						c0,0,0,0-0.1-0.1c-0.1-0.1-0.1-0.1-0.2-0.1C121.9,25.7,122,25.6,122,25.4z M120.7,25.5c0.1,0.1,0.1,0.2,0.2,0.2
						c-0.1,0-0.1,0.1-0.2,0.2c-0.1-0.1-0.1-0.1-0.2-0.2C120.6,25.7,120.6,25.6,120.7,25.5z M119.3,25.6c0,0.1,0.1,0.1,0.2,0.2
						c0,0-0.1,0.1-0.1,0.1c0,0,0,0,0,0c0-0.1-0.1-0.1-0.1-0.1C119.2,25.7,119.3,25.6,119.3,25.6z M118,25.6c0,0.1,0.1,0.1,0.1,0.2
						c-0.1,0-0.1,0.1-0.1,0.1c0,0,0,0,0,0c0,0-0.1-0.1-0.1-0.1C117.9,25.7,117.9,25.7,118,25.6z M116.6,25.5c0,0.1,0.1,0.1,0.1,0.2
						c0,0,0,0,0.1,0c-0.1,0-0.1,0.1-0.2,0.2c-0.1-0.1-0.1-0.1-0.2-0.2C116.5,25.7,116.6,25.6,116.6,25.5z M115.1,25.7
						c0.1-0.1,0.1-0.1,0.2-0.2c0.1,0.1,0.1,0.2,0.2,0.3c-0.1,0.1-0.2,0.1-0.2,0.2C115.2,25.9,115.1,25.8,115.1,25.7
						C115.1,25.7,115.1,25.7,115.1,25.7z M112.6,26.9C112.6,26.9,112.6,26.9,112.6,26.9C112.6,27,112.6,27,112.6,26.9
						C112.5,26.9,112.6,26.9,112.6,26.9z M111.3,26.8c0,0.1,0.1,0.1,0.1,0.2c-0.1,0-0.1,0.1-0.2,0.2c0,0-0.1-0.1-0.1-0.1
						C111.1,27,111.2,26.9,111.3,26.8z M109.9,26.6c0,0.2,0.1,0.3,0.3,0.5c-0.1,0.1-0.2,0.1-0.3,0.2c-0.1-0.1-0.2-0.2-0.3-0.2
						C109.7,27,109.8,26.8,109.9,26.6z M108.5,28.3C108.6,28.3,108.6,28.3,108.5,28.3c0,0.1,0,0.1,0,0.1
						C108.5,28.4,108.5,28.4,108.5,28.3C108.5,28.3,108.5,28.3,108.5,28.3z M107.2,28.1c0,0.1,0.1,0.2,0.1,0.3
						c-0.1,0.1-0.2,0.1-0.2,0.2c-0.1-0.1-0.1-0.1-0.2-0.1C107,28.4,107.1,28.2,107.2,28.1z M105.8,29.6c0,0,0,0.1,0.1,0.1
						c-0.1,0-0.1,0.1-0.2,0.1c0,0-0.1,0-0.1-0.1C105.7,29.7,105.8,29.6,105.8,29.6z M104.5,29.2c0,0.2,0.1,0.4,0.3,0.6
						c-0.1,0.1-0.2,0.2-0.3,0.3c-0.1-0.1-0.3-0.2-0.5-0.3C104.3,29.7,104.5,29.5,104.5,29.2z M103.2,30.8c0,0.1,0.1,0.3,0.2,0.3
						c-0.1,0.1-0.2,0.1-0.3,0.2c-0.1-0.1-0.2-0.2-0.3-0.2C103,31,103.1,30.9,103.2,30.8z M103.2,70.5c-0.1-0.2-0.2-0.3-0.3-0.4
						c0.1,0,0.2-0.1,0.3-0.2c0.1,0.1,0.2,0.2,0.2,0.2C103.3,70.2,103.2,70.4,103.2,70.5z M104.5,72.1c0-0.3-0.2-0.5-0.5-0.6
						c0.2,0,0.3-0.1,0.5-0.3c0.1,0.1,0.2,0.2,0.3,0.3C104.6,71.6,104.5,71.8,104.5,72.1z M105.8,71.7c0-0.1-0.1-0.1-0.2-0.2
						c0,0,0.1,0,0.1-0.1c0,0.1,0.1,0.1,0.2,0.1C105.9,71.6,105.9,71.7,105.8,71.7z M107.2,73.2c-0.1-0.1-0.2-0.3-0.3-0.3
						c0.1,0,0.1-0.1,0.2-0.1c0.1,0.1,0.1,0.2,0.2,0.2C107.3,73,107.2,73.1,107.2,73.2z M108.5,73C108.5,73,108.5,73,108.5,73
						c0-0.1,0-0.1,0-0.1C108.6,72.9,108.6,72.9,108.5,73C108.6,73,108.6,73,108.5,73z M109.9,74.7c0-0.2-0.2-0.4-0.3-0.5
						c0.1,0,0.3-0.1,0.3-0.2c0.1,0.1,0.2,0.2,0.3,0.2C110,74.3,109.9,74.5,109.9,74.7z M111.3,74.4c0-0.1-0.1-0.2-0.2-0.2
						c0,0,0.1-0.1,0.1-0.1c0.1,0.1,0.1,0.1,0.2,0.1C111.3,74.3,111.3,74.4,111.3,74.4z M112.6,74.4
						C112.6,74.4,112.5,74.3,112.6,74.4C112.6,74.3,112.6,74.3,112.6,74.4C112.6,74.3,112.6,74.4,112.6,74.4z M115.3,75.8
						c-0.1-0.1-0.1-0.2-0.2-0.3c0.1-0.1,0.2-0.1,0.2-0.2c0,0,0,0,0.1,0.1c0.1,0,0.1,0.1,0.2,0.1C115.4,75.6,115.3,75.7,115.3,75.8z
						 M116.6,75.8c0-0.1-0.1-0.2-0.2-0.2c0.1,0,0.1-0.1,0.2-0.2c0.1,0.1,0.1,0.1,0.2,0.2C116.7,75.6,116.7,75.7,116.6,75.8z
						 M118,75.7c0-0.1-0.1-0.1-0.2-0.2c0,0,0.1-0.1,0.1-0.1c0,0,0,0,0,0c0,0.1,0.1,0.1,0.1,0.1C118,75.6,118,75.6,118,75.7z
						 M119.3,75.7c0-0.1-0.1-0.1-0.1-0.2c0.1,0,0.1-0.1,0.1-0.1c0,0,0,0,0,0c0,0,0.1,0.1,0.1,0.1C119.4,75.6,119.4,75.6,119.3,75.7z
						 M120.7,75.8c0-0.1-0.1-0.1-0.1-0.2c0,0,0,0-0.1,0c0.1,0,0.1-0.1,0.2-0.2c0.1,0.1,0.1,0.1,0.2,0.2
						C120.8,75.6,120.7,75.7,120.7,75.8z M122.2,75.6c-0.1,0.1-0.1,0.1-0.2,0.2c-0.1-0.1-0.1-0.2-0.2-0.3c0.1,0,0.2-0.1,0.2-0.2
						C122.1,75.4,122.1,75.5,122.2,75.6C122.2,75.6,122.2,75.6,122.2,75.6z M124.7,74.4C124.7,74.4,124.7,74.3,124.7,74.4
						C124.7,74.3,124.7,74.3,124.7,74.4C124.7,74.3,124.7,74.4,124.7,74.4z M126,74.4c0-0.1-0.1-0.1-0.1-0.2c0.1,0,0.1-0.1,0.2-0.1
						c0,0,0.1,0.1,0.1,0.1C126.1,74.3,126.1,74.4,126,74.4z M127.4,74.7c0-0.2-0.1-0.3-0.3-0.5c0.1-0.1,0.2-0.1,0.3-0.2
						c0.1,0.1,0.2,0.2,0.4,0.2C127.6,74.3,127.4,74.5,127.4,74.7z M127.4,27.3c-0.1-0.1-0.2-0.2-0.3-0.2c0.1-0.1,0.2-0.3,0.3-0.5
						c0,0.2,0.2,0.4,0.4,0.5C127.6,27.1,127.5,27.2,127.4,27.3z M128.7,73C128.7,73,128.7,73,128.7,73c0-0.1,0-0.1,0-0.1
						C128.8,72.9,128.8,72.9,128.7,73C128.8,73,128.7,73,128.7,73z M128.7,28.4C128.7,28.4,128.7,28.4,128.7,28.4c0-0.1,0-0.1,0-0.1
						C128.7,28.3,128.8,28.3,128.7,28.4C128.8,28.4,128.8,28.4,128.7,28.4z M130.1,73.2c0-0.1-0.1-0.2-0.1-0.3
						c0.1-0.1,0.2-0.1,0.2-0.2c0.1,0.1,0.1,0.1,0.2,0.1C130.2,72.9,130.1,73,130.1,73.2z M130.2,28.6c-0.1-0.1-0.1-0.2-0.2-0.2
						c0.1-0.1,0.1-0.2,0.1-0.3c0.1,0.1,0.2,0.3,0.3,0.3C130.3,28.5,130.2,28.5,130.2,28.6z M131.4,71.7c0,0,0-0.1-0.1-0.1
						c0.1,0,0.1-0.1,0.2-0.1c0,0,0.1,0,0.1,0.1C131.5,71.6,131.5,71.6,131.4,71.7z M131.5,29.8c0-0.1-0.1-0.1-0.2-0.1
						c0,0,0.1-0.1,0.1-0.1C131.5,29.6,131.5,29.7,131.5,29.8C131.6,29.8,131.5,29.8,131.5,29.8z M132.8,72.1c0-0.2-0.1-0.4-0.3-0.6
						c0.1-0.1,0.2-0.2,0.3-0.3c0.1,0.1,0.3,0.2,0.5,0.3C133,71.6,132.8,71.8,132.8,72.1z M132.8,30.1c-0.1-0.1-0.2-0.2-0.3-0.3
						c0.2-0.1,0.3-0.3,0.3-0.6c0,0.3,0.2,0.5,0.5,0.6C133.1,29.8,132.9,29.9,132.8,30.1z M134.1,70.5c0-0.1-0.1-0.3-0.2-0.4
						c0.1-0.1,0.2-0.1,0.2-0.2c0.1,0.1,0.2,0.2,0.3,0.2C134.3,70.2,134.2,70.4,134.1,70.5z M134.1,31.3c-0.1-0.1-0.2-0.2-0.2-0.2
						c0.1-0.1,0.2-0.2,0.2-0.3c0.1,0.2,0.2,0.3,0.3,0.4C134.3,31.2,134.2,31.2,134.1,31.3z M135.5,69.1c0-0.1-0.1-0.2-0.2-0.3
						c0.1,0,0.1-0.1,0.2-0.2c0.1,0.1,0.1,0.1,0.2,0.2C135.6,68.9,135.5,69,135.5,69.1z M135.5,32.6c-0.1-0.1-0.1-0.1-0.2-0.2
						c0.1-0.1,0.1-0.2,0.2-0.3c0.1,0.1,0.1,0.2,0.2,0.3C135.6,32.5,135.5,32.5,135.5,32.6z M136.8,33.6c0.1,0.1,0.2,0.2,0.3,0.2
						c-0.1,0-0.2,0.1-0.3,0.2c0-0.1-0.1-0.1-0.2-0.2C136.7,33.7,136.8,33.7,136.8,33.6z M136.8,67.7c0-0.1-0.1-0.2-0.2-0.2
						c0.1-0.1,0.1-0.1,0.2-0.2c0.1,0.1,0.2,0.1,0.3,0.2C137,67.5,136.9,67.6,136.8,67.7z M138.2,66.4c0-0.1-0.1-0.2-0.2-0.3
						c0.1-0.1,0.2-0.2,0.2-0.2c0.1,0.1,0.2,0.2,0.4,0.2C138.4,66.2,138.2,66.3,138.2,66.4z M138.2,35.4c-0.1-0.1-0.1-0.2-0.2-0.3
						c0.1-0.1,0.2-0.2,0.2-0.3c0.1,0.2,0.2,0.3,0.4,0.3C138.4,35.2,138.3,35.3,138.2,35.4z M139.5,65.2c0-0.2-0.1-0.3-0.3-0.5
						c0.1-0.1,0.2-0.2,0.3-0.3c0.1,0.2,0.3,0.3,0.6,0.3C139.8,64.8,139.6,65,139.5,65.2z M139.6,63.4c0,0,0.1,0.1,0.1,0.1
						c-0.1,0-0.1,0.1-0.2,0.2c0,0,0-0.1-0.1-0.1C139.5,63.5,139.5,63.4,139.6,63.4z M139.4,37.8C139.5,37.7,139.5,37.7,139.4,37.8
						c0.1,0,0.2,0,0.3,0.1c0,0-0.1,0-0.1,0.1C139.5,37.9,139.5,37.8,139.4,37.8z M139.5,36.8c-0.1-0.1-0.2-0.2-0.3-0.3
						c0.1-0.1,0.2-0.3,0.3-0.5c0.1,0.3,0.3,0.5,0.6,0.5C139.9,36.5,139.6,36.6,139.5,36.8z M140.8,62.4c0-0.1-0.1-0.1-0.1-0.2
						c0.1-0.1,0.2-0.1,0.2-0.2c0.1,0.1,0.2,0.1,0.3,0.1C141,62.1,140.9,62.2,140.8,62.4z M140.9,60.7C141,60.7,141,60.7,140.9,60.7
						c0.1,0.1,0,0.1,0,0.1C140.9,60.8,140.9,60.8,140.9,60.7C140.9,60.7,140.9,60.7,140.9,60.7z M140.9,40.5
						C140.9,40.5,140.9,40.5,140.9,40.5c0.1,0,0.1,0,0.1,0C141,40.6,141,40.6,140.9,40.5C140.9,40.6,140.9,40.6,140.9,40.5z
						 M140.9,39.3c-0.1-0.1-0.1-0.2-0.2-0.2c0.1-0.1,0.1-0.1,0.1-0.2c0.1,0.1,0.2,0.2,0.3,0.3C141.1,39.2,141,39.3,140.9,39.3z
						 M142.2,59.8c0-0.1-0.1-0.3-0.2-0.4c0.1-0.1,0.2-0.2,0.2-0.3c0.1,0.1,0.3,0.2,0.5,0.3C142.5,59.4,142.3,59.6,142.2,59.8z
						 M142.3,44.6c0,0,0-0.1,0-0.1C142.3,44.5,142.4,44.6,142.3,44.6C142.4,44.6,142.3,44.6,142.3,44.6z M142.4,56.7
						C142.4,56.7,142.3,56.7,142.4,56.7C142.3,56.7,142.3,56.7,142.4,56.7C142.3,56.7,142.4,56.7,142.4,56.7z M142.3,43.4
						c0-0.1-0.1-0.1-0.1-0.2c0,0,0.1-0.1,0.1-0.1c0.1,0.1,0.1,0.1,0.2,0.2C142.4,43.3,142.3,43.3,142.3,43.4z M142.3,57.9
						c0,0,0.1,0.1,0.2,0.1c-0.1,0-0.2,0.1-0.2,0.2c0,0-0.1-0.1-0.1-0.1C142.2,58,142.2,58,142.3,57.9z M142.2,42.1
						c-0.1-0.1-0.1-0.2-0.2-0.3c0.1-0.1,0.2-0.2,0.2-0.3c0.1,0.2,0.3,0.3,0.5,0.3C142.5,41.9,142.3,42,142.2,42.1z M143.5,47
						C143.6,47.1,143.6,47.1,143.5,47c0.1,0.1,0.2,0.2,0.3,0.2c-0.1,0.1-0.2,0.1-0.3,0.2c0-0.1-0.1-0.2-0.2-0.2
						C143.4,47.2,143.5,47.1,143.5,47z M143.5,51.2c0,0.1,0.1,0.1,0.2,0.1c-0.1,0-0.1,0.1-0.2,0.2c0,0-0.1-0.1-0.1-0.1c0,0,0,0,0,0
						C143.4,51.3,143.5,51.2,143.5,51.2z M143.4,49.9C143.4,49.9,143.4,49.9,143.4,49.9c0.1-0.1,0.1-0.1,0.1-0.1
						c0,0.1,0.1,0.1,0.2,0.2c-0.1,0-0.1,0.1-0.2,0.1C143.5,50,143.4,50,143.4,49.9z M143.6,48.7C143.5,48.8,143.5,48.8,143.6,48.7
						c-0.1,0-0.2-0.1-0.2-0.1c0.1-0.1,0.1-0.1,0.2-0.2c0.1,0.1,0.1,0.1,0.2,0.2C143.7,48.6,143.6,48.7,143.6,48.7z M143.5,52.5
						c0.1,0.1,0.1,0.1,0.2,0.2c-0.1,0-0.2,0.1-0.2,0.2c0-0.1-0.1-0.1-0.2-0.2C143.4,52.6,143.5,52.5,143.5,52.5z M143.5,54.2
						c-0.1-0.1-0.1-0.2-0.2-0.2c0,0,0,0,0.1-0.1c0-0.1,0.1-0.1,0.1-0.2c0.1,0.1,0.2,0.2,0.3,0.2C143.7,54.1,143.6,54.1,143.5,54.2z"
						/>
				</g>
			</g>
		</g>
	</g>
</g>
<path fill="#FFFFFF" d="M112,53c-0.2,0-0.4-0.2-0.4-0.4c0-0.2,0.2-0.4,0.4-0.4h2.8c0.2,0,0.4,0.2,0.4,0.4c0,0.2-0.2,0.4-0.4,0.4
	c0,0-0.8,0-1,0c0,0.2,0,5,0,5c0,0.2-0.2,0.4-0.4,0.4c-0.2,0-0.4-0.2-0.4-0.4c0,0,0-4.8,0-5C112.8,53,112,53,112,53z"/>
<path fill="#FFFFFF" d="M107.7,45.2v5.4c0,0.2-0.2,0.4-0.4,0.4c-0.2,0-0.4-0.2-0.4-0.4v-5.4c0-0.2,0.2-0.4,0.4-0.4
	C107.5,44.7,107.7,44.9,107.7,45.2z"/>
<path fill="#FFFFFF" d="M105.1,57.7c0.2,0,0.4,0.2,0.4,0.4c0,0.2-0.2,0.4-0.4,0.4h-2.5c-0.2,0-0.4-0.2-0.4-0.4v-5.4
	c0-0.2,0.2-0.4,0.4-0.4c0.2,0,0.4,0.2,0.4,0.4c0,0,0,4.8,0,5C103.2,57.7,105.1,57.7,105.1,57.7z"/>
<path fill="#FFFFFF" d="M103,63.3c0,0.2,0,2.3,0,2.3c0,0.2-0.2,0.4-0.4,0.4c-0.2,0-0.4-0.2-0.4-0.4v-5.4c0-0.2,0.2-0.4,0.4-0.4h2.5
	c0.2,0,0.4,0.2,0.4,0.4c0,0.2-0.2,0.4-0.4,0.4c0,0-1.8,0-2,0c0,0.2,0,1.7,0,1.9c0.2,0,1.9,0,1.9,0c0.2,0,0.4,0.2,0.4,0.4
	c0,0.2-0.2,0.4-0.4,0.4C104.9,63.3,103.2,63.3,103,63.3z"/>
<path fill="#FFFFFF" d="M110.4,63.6c0,0.5-0.1,1-0.2,1.3c-0.5,1.1-1.6,1.2-1.9,1.2c-0.3,0-1.4-0.1-1.9-1.2c-0.2-0.3-0.2-0.8-0.2-1.3
	v-3.4c0-0.2,0.2-0.4,0.4-0.4c0.2,0,0.4,0.2,0.4,0.4v3.4c0,0.4,0.1,0.8,0.2,1c0.3,0.6,0.8,0.7,1.1,0.7c0.3,0,0.8-0.1,1.1-0.7
	c0.1-0.2,0.2-0.6,0.2-1v-3.4c0-0.2,0.2-0.4,0.4-0.4c0.2,0,0.4,0.2,0.4,0.4V63.6z"/>
<path fill="#FFFFFF" d="M116.1,65.5c0,0.3-0.2,0.5-0.5,0.5c-0.2,0-0.3-0.1-0.4-0.2c0,0-2.9-4.2-3.2-4.8c0,0.7,0,4.6,0,4.6
	c0,0.2-0.2,0.4-0.4,0.4c-0.2,0-0.4-0.2-0.4-0.4v-5.2c0-0.4,0.3-0.7,0.7-0.7c0.2,0,0.4,0.1,0.5,0.3c0,0,2.6,3.9,3,4.4
	c0-0.6,0-4.3,0-4.3c0-0.2,0.2-0.4,0.4-0.4c0.2,0,0.4,0.2,0.4,0.4V65.5z"/>
<path fill="#FFFFFF" d="M116.1,53c-0.2,0-0.4-0.2-0.4-0.4c0-0.2,0.2-0.4,0.4-0.4h2.8c0.2,0,0.4,0.2,0.4,0.4c0,0.2-0.2,0.4-0.4,0.4
	c0,0-0.8,0-1,0c0,0.2,0,5,0,5c0,0.2-0.2,0.4-0.4,0.4c-0.2,0-0.4-0.2-0.4-0.4c0,0,0-4.8,0-5C116.9,53,116.1,53,116.1,53z"/>
<path fill="#FFFFFF" d="M122.9,54.9c0.2,0,0.4,0.2,0.4,0.4c0,0.2-0.2,0.4-0.4,0.4c0,0-2,0-2.2,0c0,0.2,0,1.8,0,2c0.2,0,2.3,0,2.3,0
	c0.2,0,0.4,0.2,0.4,0.4c0,0.2-0.2,0.4-0.4,0.4h-2.7c-0.2,0-0.4-0.2-0.4-0.4v-5.5c0-0.2,0.2-0.4,0.4-0.4h2.7c0.2,0,0.4,0.2,0.4,0.4
	c0,0.2-0.2,0.4-0.4,0.4c0,0-2.1,0-2.3,0c0,0.2,0,1.7,0,1.9C120.9,54.9,122.9,54.9,122.9,54.9z"/>
<path fill="#FFFFFF" d="M133.2,52.9c0,0-1.9,3.5-1.9,3.5v1.7c0,0.2-0.2,0.4-0.4,0.4c-0.2,0-0.4-0.2-0.4-0.4c0,0,0-1.6,0-1.7
	c-0.1-0.1-1.9-3.5-1.9-3.5l0-0.2c0-0.2,0.2-0.4,0.4-0.4c0.2,0,0.3,0.1,0.4,0.2c0,0,1.3,2.6,1.5,3c0.4-0.7,1.6-3,1.6-3
	c0.1-0.1,0.2-0.2,0.4-0.2c0.2,0,0.4,0.2,0.4,0.4L133.2,52.9z"/>
<path fill="#FFFFFF" d="M120.8,65.5c-0.5,0.3-1.3,0.5-2,0.5h-1.5c-0.2,0-0.4-0.2-0.4-0.4v-5.4c0-0.2,0.2-0.4,0.4-0.4h1.5
	c0.8,0,1.5,0.2,2,0.5c1,0.7,1.4,1.8,1.4,2.6C122.2,63.2,122.2,64.6,120.8,65.5z M120.4,61c-0.5-0.3-1-0.4-1.9-0.4c0,0-0.6,0-0.7,0
	c0,0.2,0,4.4,0,4.7c0.2,0,0.7,0,0.7,0c0.5,0,1.3,0,2-0.5c0.6-0.5,0.9-1.1,0.9-1.9C121.4,62.1,121,61.4,120.4,61z"/>
<path fill="#FFFFFF" d="M126.8,56.2c0.3,0.4,1.2,1.6,1.2,1.6l0.1,0.3c0,0.2-0.2,0.4-0.4,0.4c-0.1,0-0.2-0.1-0.3-0.2
	c0,0-1.5-2-1.6-2.1c-0.1,0-0.6,0-0.8,0c0,0.2,0,1.8,0,1.8c0,0.2-0.2,0.4-0.4,0.4c-0.2,0-0.4-0.2-0.4-0.4v-5.4c0-0.2,0.2-0.4,0.4-0.4
	h1.2c0.9,0,1.3,0.1,1.5,0.2c0.7,0.3,1.1,1,1.1,1.8C128.5,55.2,127.9,56,126.8,56.2z M127,53.3c-0.3-0.2-0.6-0.2-1.1-0.2
	c0,0-0.7,0-0.9,0c0,0.2,0,2.3,0,2.5c0.2,0,0.6,0,0.6,0c0.7,0,0.9,0,1.1-0.1c0.7-0.2,0.9-0.7,0.9-1.2C127.6,53.9,127.4,53.4,127,53.3
	z"/>
<path fill="#FFFFFF" d="M108.6,58.6c-1.8,0-3.3-1.5-3.3-3.2c0-2,1.7-3.3,3.3-3.3c1.8,0,3.3,1.4,3.3,3.2
	C111.9,57.2,110.4,58.6,108.6,58.6z M108.6,52.9c-1.3,0-2.4,1.1-2.4,2.5c0,1.3,1.1,2.4,2.4,2.4c1.4,0,2.5-1.1,2.5-2.4
	C111,54,109.9,52.9,108.6,52.9z"/>
<path fill="#FFFFFF" d="M103.8,51h-1.2c-0.2,0-0.4-0.2-0.4-0.4v-5.4c0-0.2,0.2-0.4,0.4-0.4h1.2c2,0,2.1,1.4,2.1,1.7
	c0,0.6-0.3,1-0.6,1.2c0.6,0.3,0.9,0.8,0.9,1.5c0,0.6-0.3,1.2-0.8,1.5C104.9,51,104.5,51,103.8,51z M104.6,47.2
	c0.2-0.1,0.4-0.4,0.4-0.7c0-0.2-0.1-0.4-0.2-0.6c-0.2-0.2-0.5-0.3-1.1-0.3c0,0-0.5,0-0.7,0c0,0.2,0,1.6,0,1.8c0.2,0,0.6,0,0.6,0
	C104.1,47.3,104.3,47.3,104.6,47.2z M104.7,48.3c-0.3-0.1-0.5-0.1-1.1-0.1c0,0-0.4,0-0.6,0c0,0.2,0,1.9,0,2.1c0.2,0,0.7,0,0.7,0
	c0.5,0,0.8,0,1.1-0.1c0.3-0.1,0.6-0.5,0.6-0.9C105.3,48.8,105.1,48.4,104.7,48.3z"/>
<path fill="#FFFFFF" d="M112,48.2h2.1c-0.1,0.5-0.3,1.1-0.7,1.5c-1,1-2.6,1-3.5,0c-1-1-1-2.5,0-3.4c1-1,2.6-1,3.5,0
	c0.2,0.2,0.4,0.2,0.6,0c0.2-0.2,0.2-0.4,0-0.6c-1.3-1.3-3.4-1.3-4.7,0c-1.3,1.3-1.3,3.3,0,4.6c1.3,1.3,3.4,1.3,4.7,0
	c0.7-0.6,1-1.5,1-2.3v-0.1c0-0.2-0.2-0.4-0.4-0.4H112h-0.1c-0.2,0-0.4,0.2-0.4,0.4C111.5,48,111.7,48.2,112,48.2L112,48.2z"/>
</svg>
