<?xml version="1.0" encoding="utf-8"?>
<!-- Generator: Adobe Illustrator 18.1.1, SVG Export Plug-In . SVG Version: 6.00 Build 0)  -->
<svg version="1.1" id="Layer_1" xmlns="http://www.w3.org/2000/svg" xmlns:xlink="http://www.w3.org/1999/xlink" x="0px" y="0px"
	 viewBox="0 0 558.4 112.8" enable-background="new 0 0 558.4 112.8" xml:space="preserve">
<path fill-rule="evenodd" clip-rule="evenodd" fill="#FFFFFF" d="M37.8,62.8c0,5.1-5,12.7-17.2,12.7c-5.7,0-10.9-2.2-10.9-8.3
	c0-6.8,5.2-9,11.3-10.1c6.2-1.1,13.1-1.2,16.7-3.8V62.8z M52.8,75c-1.2,0.4-2.1,0.5-2.8,0.5c-2.9,0-2.9-2-2.9-6.3V40.3
	c0-13.1-11-15.4-21.1-15.4c-12.5,0-23.3,4.9-23.8,18.8h9.2c0.4-8.3,6.2-10.6,14-10.6c5.9,0,12.5,1.3,12.5,9.3c0,7-8.7,6.3-18.9,8.3
	C9.5,52.5,0,55.2,0,67.9c0,11.2,8.4,15.8,18.6,15.8c7.8,0,14.7-2.7,19.8-8.7c0,6.1,3,8.7,7.8,8.7c2.9,0,5-0.5,6.6-1.5V75z"/>
<path fill="#FFFFFF" d="M107.9,26.2h-9.8l-15.8,46h-0.2l-16.4-46H55.3l22.3,55.8l-3.8,9.6c-1.7,3.3-3.8,5.1-7.6,5.1
	c-1.8,0-3.7-0.8-5.4-1.3v8.5c2.1,0.8,4.2,1,6.4,1c8.3,0,12.1-4,16.3-15L107.9,26.2z"/>
<path fill-rule="evenodd" clip-rule="evenodd" fill="#FFFFFF" d="M159.5,53.8c0,11-4.2,21.7-16.8,21.7c-12.7,0-17.7-10.2-17.7-21.3
	c0-10.5,4.8-21.2,17.2-21.2C154.1,33.1,159.5,43.3,159.5,53.8 M116,103.9h9.2v-29h0.2c4.1,6.6,12.4,8.8,18.1,8.8
	c17.2,0,25.6-13.4,25.6-29.2c0-15.9-8.6-29.6-25.9-29.6c-7.7,0-14.9,2.7-17.9,8.9h-0.2v-7.6H116V103.9z"/>
<path fill="#FFFFFF" d="M180.1,82.4h9.2V50.7c0-10.1,5.4-17.6,16.6-17.6c7.1,0,11.4,4.5,11.4,11.3v38h9.2V45.5
	c0-12.1-4.6-20.5-19.3-20.5c-6.7,0-14.7,2.8-17.7,9.6h-0.2V4.8h-9.2V82.4z"/>
<line fill="none" stroke="#FFFFFF" stroke-width="2.732" stroke-miterlimit="3.864" x1="250.6" y1="112.8" x2="250.6" y2="0"/>
<path fill="#FFFFFF" d="M286,55.9c0-0.3-0.2-0.5-0.6-0.5h-0.3c-0.2,0-0.4,0.2-0.5,0.4l-5.2,11.5c-0.4,1-0.6,1.1-1,1.1
	c-0.4,0-0.6-0.2-1-1.1l-5.2-11.5c-0.1-0.2-0.3-0.4-0.5-0.4h-0.3c-0.4,0-0.6,0.2-0.6,0.5c0,0.1,0,0.3,0.1,0.4l5.2,11.4
	c0.6,1.2,1,1.7,1.5,1.9v9.5c0,0.3,0.2,0.6,0.6,0.6h0.3c0.3,0,0.6-0.3,0.6-0.6v-9.5c0.5-0.2,1-0.7,1.5-1.9l5.2-11.4
	C286,56.2,286,56,286,55.9"/>
<path fill-rule="evenodd" clip-rule="evenodd" fill="#FFFFFF" d="M298.6,72.2v-2.3c0-5-2.3-7.8-6.8-7.8c-4.5,0-6.8,2.9-6.8,7.8v2.3
	c0,5,2.3,7.8,6.8,7.8C296.3,80,298.6,77.1,298.6,72.2 M297.1,72.2c0,4-1.5,6.6-5.3,6.6c-3.8,0-5.3-2.5-5.3-6.6v-2.3
	c0-4,1.5-6.6,5.3-6.6c3.8,0,5.3,2.5,5.3,6.6V72.2z"/>
<path fill-rule="evenodd" clip-rule="evenodd" fill="#FFFFFF" d="M314.8,79.2V62.8c0-0.3-0.3-0.6-0.6-0.6H314
	c-0.3,0-0.6,0.3-0.6,0.6v14.5c-1.6,0.8-3.5,1.3-5.2,1.3h-0.1c-2.4,0-4.4-1.3-4.4-5V62.8c0-0.3-0.3-0.6-0.6-0.6H303
	c-0.4,0-0.6,0.3-0.6,0.6v10.9c0,4.5,2.6,6.3,5.8,6.3c1.7,0,3.6-0.5,5.3-1.3v0.5c0,0.4,0.2,0.7,0.6,0.7h0.3
	C314.6,79.8,314.8,79.5,314.8,79.2"/>
<path fill-rule="evenodd" clip-rule="evenodd" fill="#FFFFFF" d="M331.9,79.2V68.3c0-4.6-2.6-6.3-5.8-6.3c-1.7,0-3.6,0.5-5.3,1.3
	v-0.5c0-0.4-0.2-0.7-0.6-0.7H320c-0.4,0-0.6,0.3-0.6,0.7v16.3c0,0.3,0.3,0.6,0.6,0.6h0.2c0.3,0,0.6-0.3,0.6-0.6V64.7
	c1.6-0.8,3.5-1.3,5.2-1.3c2.5,0,4.4,1.2,4.4,5v10.9c0,0.3,0.3,0.6,0.6,0.6h0.2C331.6,79.8,331.9,79.5,331.9,79.2"/>
<path fill-rule="evenodd" clip-rule="evenodd" fill="#FFFFFF" d="M350.2,63.1v-0.4c0-0.3-0.3-0.5-0.6-0.5h-6.7c-5.6,0-6.8,3-6.8,5.5
	v0.3c0,1.7,0.6,3,1.7,3.9c-1,0.4-1.4,1.3-1.4,2.1c0,1,0.5,1.8,1.7,2.2l0.2,0.1c-1.1,0.7-2.5,2.4-2.5,4.7v0.3c0,3,1.9,5.1,7,5.1
	c5.2,0,7-2.1,7-5.1v-0.3c0-2.7-1.7-3.5-5.2-4.4l-5.9-1.5c-0.8-0.2-1-0.6-1-1c0-0.7,0.4-1.1,1.1-1.4c1.2,0.5,2.3,0.8,4,0.8
	c5.1,0,6.8-2.2,6.8-5.3v-0.3c0-2.4-1.1-3.5-1.8-4.1h1.7C349.9,63.6,350.2,63.5,350.2,63.1 M348.3,67.9c0,2.3-1.1,4.1-5.4,4.1
	c-4.5,0-5.3-2.5-5.3-4.1v-0.3c0-2.1,0.8-4.2,5.3-4.2c4.3,0,5.4,1.9,5.4,4.2V67.9z M348.5,81.2c0,2.4-1.1,3.9-5.5,3.9
	c-4.2,0-5.5-1.5-5.5-3.9v-0.3c0-2.2,1-3.4,2.4-4.4l4.5,1.2c3.4,0.9,4.1,1.3,4.1,3.2V81.2z"/>
<path fill-rule="evenodd" clip-rule="evenodd" fill="#FFFFFF" d="M374.3,62.5v-0.6c0-4.7-3.3-6.7-8.9-6.7c-1.4,0-3.3,0.1-4.5,0.2
	c-0.3,0-0.6,0.3-0.6,0.6v23.1c0,0.3,0.2,0.6,0.6,0.6h0.3c0.3,0,0.6-0.3,0.6-0.6v-9.8c0.9,0.1,2.3,0.1,3.6,0.1
	C371,69.5,374.3,67.7,374.3,62.5 M372.9,62.5c0,4.2-2.4,5.7-7.5,5.7c-1.1,0-2.6-0.1-3.6-0.1V56.7c1-0.1,2.2-0.1,3.6-0.1
	c4.9,0,7.5,1.3,7.5,5.4V62.5z"/>
<path fill-rule="evenodd" clip-rule="evenodd" fill="#FFFFFF" d="M389.6,70.7v-0.9c0-4.7-2-7.8-6.5-7.8c-4.3,0-6.6,3.3-6.6,7.8V72
	c0,6.2,3.3,8,7.4,8c1.5,0,3.3-0.2,4.9-0.6c0.5-0.1,0.6-0.3,0.6-0.6v-0.2c0-0.3-0.2-0.5-0.5-0.5c-0.1,0-0.1,0-0.2,0
	c-1.6,0.3-3.4,0.6-4.9,0.6c-3.3,0-5.9-1.2-5.9-6.7v-0.7H389C389.3,71.4,389.6,71.1,389.6,70.7 M388.1,70h-10.3v-0.2
	c0-3.9,1.5-6.6,5.2-6.6c3.7,0,5.1,2.4,5.1,6.5V70z"/>
<path fill-rule="evenodd" clip-rule="evenodd" fill="#FFFFFF" d="M406.7,72.2v-2.3c0-5-2.3-7.8-6.8-7.8c-4.5,0-6.8,2.9-6.8,7.8v2.3
	c0,5,2.3,7.8,6.8,7.8C404.4,80,406.7,77.1,406.7,72.2 M405.3,72.2c0,4-1.5,6.6-5.3,6.6c-3.8,0-5.3-2.5-5.3-6.6v-2.3
	c0-4,1.5-6.6,5.3-6.6c3.8,0,5.3,2.5,5.3,6.6V72.2z"/>
<path fill-rule="evenodd" clip-rule="evenodd" fill="#FFFFFF" d="M423.2,72.2V70c0-4.7-1.9-8-6.4-8c-1.9,0-4.1,0.3-5.5,0.6
	c-0.4,0.1-0.5,0.2-0.5,0.6v22.3c0,0.3,0.2,0.6,0.6,0.6h0.3c0.3,0,0.6-0.3,0.6-0.6v-6.1c1.3,0.3,3.3,0.5,4.6,0.5
	C421.1,80,423.2,77.4,423.2,72.2 M421.8,72.2c0,4.3-1.4,6.6-5,6.6c-1.3,0-3.3-0.2-4.6-0.4V63.8c1.2-0.2,3-0.4,4.6-0.4
	c3.7,0,5,2.5,5,6.7V72.2z"/>
<path fill="#FFFFFF" d="M429.1,79.2V56.1c0-0.3-0.2-0.6-0.6-0.6h-0.3c-0.3,0-0.6,0.3-0.6,0.6v23.1c0,0.3,0.2,0.6,0.6,0.6h0.3
	C428.9,79.8,429.1,79.5,429.1,79.2"/>
<path fill-rule="evenodd" clip-rule="evenodd" fill="#FFFFFF" d="M446.7,70.7v-0.9c0-4.7-2-7.8-6.5-7.8c-4.3,0-6.6,3.3-6.6,7.8V72
	c0,6.2,3.3,8,7.4,8c1.5,0,3.3-0.2,4.9-0.6c0.5-0.1,0.6-0.3,0.6-0.6v-0.2c0-0.3-0.2-0.5-0.5-0.5c-0.1,0-0.1,0-0.2,0
	c-1.6,0.3-3.4,0.6-4.9,0.6c-3.3,0-5.9-1.2-5.9-6.7v-0.7H446C446.4,71.4,446.7,71.1,446.7,70.7 M445.2,70h-10.3v-0.2
	c0-3.9,1.5-6.6,5.2-6.6c3.7,0,5.1,2.4,5.1,6.5V70z"/>
<path fill="#FFFFFF" d="M452.8,55.8c0-0.2-0.1-0.4-0.4-0.4h-0.6c-0.3,0-0.6,0.2-0.7,0.6l-1.3,5.6c0,0.1,0,0.2,0,0.3
	c0,0.2,0.1,0.3,0.3,0.3h0.5c0.3,0,0.5-0.2,0.6-0.6l1.6-5.6C452.8,56,452.8,55.9,452.8,55.8"/>
<path fill="#FFFFFF" d="M465.2,75.5c0-2.2-1.4-3.2-4.2-4.8l-2.2-1.2c-2-1.1-3.2-2-3.2-3.4c0-2.3,1.6-2.8,3.7-2.8
	c1.8,0,3.7,0.3,4.6,0.4h0.1c0.3,0,0.6-0.1,0.6-0.5v-0.3c0-0.3-0.2-0.5-0.7-0.6c-1.1-0.1-2.3-0.3-4.7-0.3c-2.6,0-5,1-5,4
	c0,2.2,1.5,3.3,4,4.7l2.1,1.1c2.8,1.5,3.5,2.2,3.5,3.6c0,2.7-1.8,3.3-4.2,3.3c-1.3,0-3.2-0.3-4.8-0.5h-0.2c-0.3,0-0.5,0.1-0.5,0.5
	V79c0,0.3,0.3,0.4,0.7,0.5c1.2,0.2,3.3,0.5,4.8,0.5C462.6,80,465.2,79,465.2,75.5"/>
<path fill="#FFFFFF" d="M489.5,79.2V56.1c0-0.3-0.2-0.6-0.6-0.6h-0.3c-0.4,0-0.6,0.3-0.6,0.6v10H475v-10c0-0.3-0.2-0.6-0.6-0.6h-0.3
	c-0.3,0-0.6,0.3-0.6,0.6v23.1c0,0.3,0.2,0.6,0.6,0.6h0.3c0.3,0,0.6-0.3,0.6-0.6V67.5h13.1v11.7c0,0.3,0.2,0.6,0.6,0.6h0.3
	C489.3,79.8,489.5,79.5,489.5,79.2"/>
<path fill-rule="evenodd" clip-rule="evenodd" fill="#FFFFFF" d="M507.1,70.7v-0.9c0-4.7-2-7.8-6.5-7.8c-4.3,0-6.6,3.3-6.6,7.8V72
	c0,6.2,3.3,8,7.4,8c1.5,0,3.3-0.2,4.9-0.6c0.5-0.1,0.6-0.3,0.6-0.6v-0.2c0-0.3-0.2-0.5-0.5-0.5c-0.1,0-0.1,0-0.2,0
	c-1.6,0.3-3.4,0.6-4.9,0.6c-3.3,0-5.9-1.2-5.9-6.7v-0.7h11.1C506.8,71.4,507.1,71.1,507.1,70.7 M505.6,70h-10.3v-0.2
	c0-3.9,1.5-6.6,5.2-6.6c3.7,0,5.1,2.4,5.1,6.5V70z"/>
<path fill-rule="evenodd" clip-rule="evenodd" fill="#FFFFFF" d="M522.6,79.2V68.1c0-3.5-1.1-6-5.6-6c-2.2,0-3.3,0.1-4.7,0.3
	c-0.5,0.1-0.8,0.2-0.8,0.6v0.2c0,0.4,0.3,0.5,0.6,0.5h0.1c1.5-0.2,2.5-0.3,4.7-0.3c3.2,0,4.1,1.3,4.1,4.8v1.2h-2.5
	c-6,0-8.1,1.7-8.1,5.1v0.4c0,4.1,2.6,5.3,5,5.3c2,0,4-0.8,5.6-1.7v0.8c0,0.4,0.3,0.7,0.7,0.7h0.2C522.3,79.8,522.6,79.5,522.6,79.2
	 M521.1,77.1c-2.2,1.2-3.8,1.7-5.6,1.7c-2,0-3.6-0.9-3.6-4v-0.4c0-2.8,1.7-3.8,6.7-3.8h2.5V77.1z"/>
<path fill="#FFFFFF" d="M528.9,79.2V56.1c0-0.3-0.2-0.6-0.6-0.6H528c-0.3,0-0.6,0.3-0.6,0.6v23.1c0,0.3,0.2,0.6,0.6,0.6h0.3
	C528.7,79.8,528.9,79.5,528.9,79.2"/>
<path fill="#FFFFFF" d="M542.7,79.4v-0.2c0-0.3-0.2-0.5-0.7-0.5h-1.6c-1.4,0-2.3-0.3-2.3-2.3V63.6h3.9c0.4,0,0.6-0.2,0.6-0.5v-0.3
	c0-0.3-0.3-0.5-0.6-0.5h-3.9v-3.4c0-0.3-0.2-0.6-0.5-0.6h-0.4c-0.4,0-0.6,0.3-0.6,0.6v3.4h-3.2c-0.4,0-0.6,0.2-0.6,0.5V63
	c0,0.3,0.3,0.5,0.6,0.5h3.2v12.9c0,2.8,1.4,3.5,3.7,3.5c0.6,0,1.2,0,1.7-0.1C542.6,79.9,542.7,79.7,542.7,79.4"/>
<path fill="#FFFFFF" d="M558.4,79.2V68.3c0-3.7-1.7-6.3-6.3-6.3c-1.4,0-3.1,0.3-4.4,0.6v-6.6c0-0.3-0.2-0.6-0.6-0.6h-0.3
	c-0.3,0-0.6,0.3-0.6,0.6v23.1c0,0.3,0.2,0.6,0.6,0.6h0.3c0.3,0,0.6-0.3,0.6-0.6V63.9c1.2-0.4,3-0.6,4.4-0.6c3.5,0,4.9,1.8,4.9,5
	v10.9c0,0.3,0.2,0.6,0.5,0.6h0.3C558.2,79.8,558.4,79.5,558.4,79.2"/>
<path fill-rule="evenodd" clip-rule="evenodd" fill="#FFFFFF" d="M288.5,46.6c0-0.1,0-0.2-0.1-0.3l-6.7-22.2c-0.3-1-1.1-1.6-2.1-1.6
	c-1.1,0-1.8,0.6-2.1,1.6l-6.7,22.2c0,0.1,0,0.2,0,0.3c0,0.3,0.2,0.5,0.5,0.5h0.4c0.2,0,0.5-0.2,0.5-0.4l2.7-8.9h9.4l2.8,8.9
	c0.1,0.2,0.3,0.4,0.5,0.4h0.4C288.3,47.1,288.5,46.9,288.5,46.6 M283.9,36.4h-8.7l3.6-12c0.1-0.4,0.3-0.6,0.8-0.6
	c0.5,0,0.7,0.3,0.8,0.7L283.9,36.4z"/>
<path fill="#FFFFFF" d="M303.2,42.7c0-2.2-1.4-3.2-4.2-4.8l-2.2-1.2c-2-1.1-3.2-2-3.2-3.4c0-2.3,1.6-2.8,3.7-2.8
	c1.8,0,3.7,0.3,4.6,0.4h0.1c0.3,0,0.6-0.1,0.6-0.5v-0.3c0-0.3-0.2-0.5-0.7-0.6c-1.1-0.1-2.3-0.3-4.7-0.3c-2.6,0-5,1-5,4
	c0,2.2,1.5,3.3,4,4.7l2.1,1.1c2.8,1.5,3.5,2.2,3.5,3.6c0,2.7-1.8,3.3-4.2,3.3c-1.3,0-3.2-0.3-4.8-0.5h-0.2c-0.3,0-0.5,0.1-0.5,0.5
	v0.4c0,0.3,0.3,0.4,0.7,0.5c1.2,0.2,3.3,0.5,4.8,0.5C300.6,47.2,303.2,46.2,303.2,42.7"/>
<path fill="#FFFFFF" d="M317.6,42.7c0-2.2-1.4-3.2-4.2-4.8l-2.2-1.2c-2-1.1-3.2-2-3.2-3.4c0-2.3,1.6-2.8,3.7-2.8
	c1.8,0,3.7,0.3,4.6,0.4h0.1c0.3,0,0.6-0.1,0.6-0.5v-0.3c0-0.3-0.2-0.5-0.7-0.6c-1.1-0.1-2.3-0.3-4.7-0.3c-2.6,0-5,1-5,4
	c0,2.2,1.5,3.3,4,4.7l2.1,1.1c2.8,1.5,3.5,2.2,3.5,3.6c0,2.7-1.8,3.3-4.2,3.3c-1.3,0-3.2-0.3-4.8-0.5H307c-0.3,0-0.5,0.1-0.5,0.5
	v0.4c0,0.3,0.3,0.4,0.7,0.5c1.2,0.2,3.3,0.5,4.8,0.5C315,47.2,317.6,46.2,317.6,42.7"/>
<path fill-rule="evenodd" clip-rule="evenodd" fill="#FFFFFF" d="M334.6,39.4v-2.3c0-5-2.3-7.8-6.8-7.8c-4.5,0-6.8,2.9-6.8,7.8v2.3
	c0,5,2.3,7.8,6.8,7.8C332.3,47.2,334.6,44.3,334.6,39.4 M333.1,39.4c0,4-1.5,6.6-5.3,6.6c-3.8,0-5.3-2.5-5.3-6.6v-2.3
	c0-4,1.5-6.6,5.3-6.6c3.8,0,5.3,2.5,5.3,6.6V39.4z"/>
<path fill="#FFFFFF" d="M349.2,46.3v-0.2c0-0.3-0.2-0.5-0.5-0.5h-0.2c-1.5,0.2-2.8,0.3-3.9,0.3c-3.7,0-5.1-2.7-5.1-6.7v-2.2
	c0-4,1.3-6.6,5.1-6.6c1.1,0,2.4,0.1,3.9,0.3h0.2c0.3,0,0.5-0.1,0.5-0.5v-0.2c0-0.4-0.1-0.5-0.6-0.6c-1.4-0.2-2.9-0.3-4-0.3
	c-4.7,0-6.5,3.5-6.5,7.8v2.2c0,4.3,1.8,7.9,6.5,7.9c1,0,2.6-0.1,4-0.3C349.1,46.9,349.2,46.7,349.2,46.3"/>
<path fill-rule="evenodd" clip-rule="evenodd" fill="#FFFFFF" d="M354.7,25.5v-2.4c0-0.3-0.3-0.6-0.6-0.6h-0.2
	c-0.3,0-0.6,0.3-0.6,0.6v2.4c0,0.4,0.3,0.6,0.6,0.6h0.2C354.4,26.2,354.7,25.9,354.7,25.5 M354.7,46.4V30c0-0.3-0.3-0.6-0.6-0.6
	h-0.2c-0.3,0-0.6,0.3-0.6,0.6v16.4c0,0.3,0.3,0.6,0.6,0.6h0.2C354.4,47,354.7,46.7,354.7,46.4"/>
<path fill-rule="evenodd" clip-rule="evenodd" fill="#FFFFFF" d="M371.1,46.4V35.3c0-3.5-1.1-6-5.6-6c-2.2,0-3.3,0.1-4.7,0.3
	c-0.5,0.1-0.8,0.2-0.8,0.6v0.2c0,0.4,0.3,0.5,0.6,0.5h0.1c1.5-0.2,2.5-0.3,4.7-0.3c3.2,0,4.1,1.3,4.1,4.8v1.2h-2.5
	c-6,0-8.1,1.7-8.1,5v0.4c0,4.1,2.6,5.3,5,5.3c2,0,4-0.8,5.6-1.7v0.8c0,0.4,0.3,0.7,0.7,0.7h0.2C370.8,47,371.1,46.7,371.1,46.4
	 M369.6,44.3c-2.2,1.2-3.8,1.7-5.6,1.7c-2,0-3.6-1-3.6-4v-0.4c0-2.8,1.7-3.8,6.7-3.8h2.5V44.3z"/>
<path fill="#FFFFFF" d="M383.8,46.6v-0.2c0-0.3-0.2-0.5-0.7-0.5h-1.6c-1.4,0-2.3-0.3-2.3-2.3V30.8h3.9c0.4,0,0.6-0.2,0.6-0.5v-0.3
	c0-0.3-0.3-0.5-0.6-0.5h-3.9V26c0-0.3-0.2-0.6-0.5-0.6h-0.4c-0.4,0-0.6,0.3-0.6,0.6v3.4h-3.2c-0.4,0-0.6,0.2-0.6,0.5v0.3
	c0,0.3,0.3,0.5,0.6,0.5h3.2v12.9c0,2.8,1.4,3.5,3.7,3.5c0.6,0,1.2,0,1.7-0.1C383.7,47.1,383.8,46.9,383.8,46.6"/>
<path fill-rule="evenodd" clip-rule="evenodd" fill="#FFFFFF" d="M389.2,25.5v-2.4c0-0.3-0.3-0.6-0.6-0.6h-0.2
	c-0.3,0-0.6,0.3-0.6,0.6v2.4c0,0.4,0.3,0.6,0.6,0.6h0.2C388.9,26.2,389.2,25.9,389.2,25.5 M389.2,46.4V30c0-0.3-0.3-0.6-0.6-0.6
	h-0.2c-0.3,0-0.6,0.3-0.6,0.6v16.4c0,0.3,0.3,0.6,0.6,0.6h0.2C388.9,47,389.2,46.7,389.2,46.4"/>
<path fill-rule="evenodd" clip-rule="evenodd" fill="#FFFFFF" d="M407.1,39.4v-2.3c0-5-2.3-7.8-6.8-7.8c-4.5,0-6.8,2.9-6.8,7.8v2.3
	c0,5,2.3,7.8,6.8,7.8C404.9,47.2,407.1,44.3,407.1,39.4 M405.7,39.4c0,4-1.5,6.6-5.3,6.6c-3.8,0-5.3-2.5-5.3-6.6v-2.3
	c0-4,1.5-6.6,5.3-6.6c3.8,0,5.3,2.5,5.3,6.6V39.4z"/>
<path fill-rule="evenodd" clip-rule="evenodd" fill="#FFFFFF" d="M423.7,46.4V35.5c0-4.6-2.6-6.3-5.8-6.3c-1.7,0-3.6,0.5-5.3,1.3
	v-0.5c0-0.4-0.2-0.7-0.6-0.7h-0.3c-0.4,0-0.6,0.3-0.6,0.7v16.3c0,0.3,0.3,0.6,0.6,0.6h0.2c0.3,0,0.6-0.3,0.6-0.6V31.9
	c1.6-0.8,3.5-1.3,5.2-1.3c2.5,0,4.4,1.2,4.4,5v10.9c0,0.3,0.3,0.6,0.6,0.6h0.2C423.5,47,423.7,46.7,423.7,46.4"/>
</svg>
